<svg width="12500" height="3599.9999999999995" xmlns="http://www.w3.org/2000/svg" preserveAspectRatio="xMidYMid meet">

 <g>
  <title>background</title>
  <rect fill="none" id="canvas_background" height="3602" width="12502" y="-1" x="-1"/>
 </g>
 <g>
  <title>Layer 1</title>
  <g fill="#251e1e" id="layer101">
   <path id="svg_3" d="m6818.33368,3377.3682c-174,-27.66284 -299,-69.1571 -373,-123.09964c-15,-11.06514 -31,-19.36399 -36,-19.36399c-5,0 -47,-35.96169 -95,-78.8391c-190,-175.65904 -301,-385.89663 -352,-668.05761c-15,-80.22224 -19,-150.76248 -18,-311.20696c1,-197.78931 10,-286.3104 40,-401.11119c23,-87.13795 92,-266.94642 118,-305.67439c14,-22.13027 38,-62.24139 53,-89.90423c30,-56.70882 149,-183.95789 223,-240.66672c143,-109.26822 271,-149.37934 475,-149.37934c150,-1.38314 223,11.06514 340,53.94254c199,76.07281 336,219.91959 370,392.81234c5,26.2797 10,143.84677 10,260.03071l0,210.23759l-230,0l-230,0l0,-70.54024c0,-41.49426 -7,-87.13795 -17,-112.03451c-23,-52.5594 -100,-107.88508 -152,-107.88508c-22,0 -43,-5.53257 -46,-13.83142c-8,-17.98085 -62,-17.98085 -70,0c-3,6.91571 -27,13.83142 -53,13.83142c-71,1.38314 -172,80.22224 -218,172.89276c-47,94.05366 -67,197.78931 -67,359.61693c0,213.00388 31,337.48666 113,450.90431c111,153.52877 288,200.5556 491,128.63221c73,-24.89656 191,-98.20309 260,-157.67819c25,-23.51341 51,-41.49426 57,-41.49426c7,0 51,110.65136 98,244.81614c64,182.57475 84,250.34871 77,266.94642c-15,30.42913 -130,135.54792 -193,174.2759c-30,19.36399 -62,38.72798 -70,45.64369c-49,34.57855 -203,85.75481 -315,105.1188c-72,11.06514 -137,19.36399 -145,19.36399c-8,-1.38314 -28,-5.53257 -45,-8.29885z"/>
   <path id="svg_4" d="m8133.33368,3363.53678c-212,-51.17626 -363,-232.36786 -408,-488.24914c-31,-181.19161 -18,-362.38322 36,-497.93114c112,-279.39469 429,-460.5863 801,-457.82002c70,0 120,-5.53257 128,-13.83142c18,-22.13027 16,-130.01535 -3,-182.57475c-23,-60.85825 -68,-114.80079 -110,-134.16478c-51,-23.51341 -275,-9.68199 -334,20.74713c-25,12.44828 -90,52.5594 -144,91.28738c-55,37.34484 -103,63.62453 -108,56.70882c-7,-9.68199 -178,-470.2683 -178,-479.95029c0,-11.06514 130,-114.80079 185,-147.9962c79,-48.40997 211,-100.96937 305,-123.09964c120,-29.04598 368,-22.13027 470,13.83142c217,74.68967 368,247.58243 431,492.39857c42,161.82762 48,265.56327 49,751.04613l0,460.5863l25,33.19541c21,30.42913 33,34.57855 100,34.57855l75,0l-2,260.03071l-3,258.64756l-285,2.76628c-280,4.14943 -286,2.76628 -325,-27.66284c-58,-45.64369 -85,-107.88508 -85,-197.78931c0,-40.11112 -4,-77.45595 -10,-81.60538c-5,-4.14943 -10,-2.76628 -10,5.53257c0,26.2797 -124,197.78931 -175,242.04986c-75,65.00768 -121,88.52109 -219,112.03451c-103,23.51341 -96,24.89656 -206,-2.76628zm388,-561.55567c85,-56.70882 170,-224.06901 187,-365.1495c12,-105.1188 5,-114.80079 -83,-114.80079c-74,0 -198,31.81227 -216,56.70882c-6,6.91571 -17,12.44828 -26,12.44828c-9,0 -35,22.13027 -58,48.40997c-61,71.92339 -77,174.2759 -46,282.16098c34,118.95022 135,152.14563 242,80.22224z"/>
   <path id="svg_5" d="m11013.33368,3378.75134c-143,-30.42913 -194,-52.5594 -275,-124.48278c-141,-124.48278 -215,-326.42152 -215,-578.15338c1,-304.29125 143,-538.04226 400,-658.37562c134,-63.62453 309,-100.96937 455,-98.20309c136,1.38314 135,2.76628 135,-92.67052c0,-92.67052 -20,-146.61306 -76,-204.70502c-37,-40.11112 -38,-40.11112 -184,-40.11112c-90,0 -156,5.53257 -171,15.21456c-13,9.68199 -40,24.89656 -59,34.57855c-19,8.29885 -75,44.26055 -124,77.45595c-68,45.64369 -92,55.32568 -98,42.8774c-4,-9.68199 -45,-118.95022 -90,-242.04986c-98,-265.56327 -101,-243.433 56,-348.5518c194,-128.63221 344,-174.2759 571,-171.50961c218,1.38314 346,47.02683 477,165.97705c84,76.07281 139,163.21076 182,287.69355c58,167.36019 66,266.94642 66,780.09212c0,467.50201 4,528.36026 40,554.63996c10,8.29885 50,13.83142 89,13.83142l71,0l0,262.79699l0,262.79699l-280,0c-294,0 -323,-5.53257 -368,-65.00768c-35,-44.26055 -54,-114.80079 -50,-178.42532c2,-40.11112 -1,-62.24139 -9,-67.77396c-7,-2.76628 -13,2.76628 -13,13.83142c0,11.06514 -33,65.00768 -73,120.33336c-96,132.78164 -186,196.40617 -317,225.45215c-52,11.06514 -99,19.36399 -105,19.36399c-5,-1.38314 -21,-4.14943 -35,-6.91571zm317,-574.00395c52,-34.57855 136,-160.44448 165,-246.19928c13,-40.11112 21,-94.05366 22,-146.61306l1,-82.98852l-101,0c-108,1.38314 -189,31.81227 -267,99.58623c-65,56.70882 -94,185.34103 -63,284.92726c38,124.48278 136,160.44448 243,91.28738z"/>
   <path id="svg_6" d="m10030.33368,3337.25708c-4,-5.53257 -28,-13.83142 -55,-20.74713c-137,-29.04598 -267,-171.50961 -320,-348.5518c-59,-196.40617 -62,-261.41385 -62,-1311.21866c0,-522.82769 -3,-959.90058 -6,-972.34886c-5,-17.98085 -25,-22.13027 -110,-22.13027l-104,0l0,-262.79699l0,-262.79699l385,0l385,0l1,1214.39872c0,1106.51364 2,1218.54814 17,1273.87383c25,87.13795 58,117.56707 142,123.09964l70,5.53257l0,295.9924l0,295.9924l-168,0c-93,0 -172,-4.14943 -175,-8.29885z"/>
  </g>
  <g id="svg_473">
   <g transform="matrix(1.23071, 0, 0, 1.17198, -192046, -53982.9)" fill="#143592" id="svg_35">
    <path id="svg_37" d="m159703.96608,49117.87109c-127,-15 -198,-37 -305,-93c-131,-68 -285,-199 -355,-301c-13,-19 -27,-37 -30,-40c-4,-3 -21,-32 -40,-65c-18,-33 -34,-61 -36,-63c-1,-2 -30,24 -63,57c-138,135 -310,201 -524,201c-152,0 -273,-39 -410,-131l-57,-39l0,59c0,56 -2,62 -33,85c-34,26 -34,26 -246,26l-213,0l-28,-28l-28,-29l-20,26l-19,26l-398,3l-398,3l-38,-26c-65,-43 -174,-224 -229,-382c-60,-172 -71,-377 -27,-538c15,-55 41,-128 58,-162c16,-34 30,-65 29,-68c0,-3 4,-11 10,-18c6,-6 34,-48 62,-91c28,-44 58,-87 67,-96c9,-9 39,-41 67,-71c53,-56 78,-80 179,-164c107,-90 187,-166 360,-342c158,-161 206,-198 237,-189c7,3 25,7 40,10c43,10 68,68 68,162l0,77l47,-45c66,-61 148,-120 213,-154c44,-22 69,-28 124,-28c64,-1 70,1 90,27c21,28 21,38 24,458c1,236 5,429 8,429c3,0 15,-9 27,-21c55,-52 226,-128 325,-146c51,-9 209,-9 255,1c32,6 37,4 37,-12c0,-31 53,-72 116,-88c203,-54 341,-209 365,-411c14,-122 41,-143 189,-143c98,0 149,16 168,52c8,14 13,82 15,183l2,160l126,5c84,3 131,9 142,18c29,24 40,81 34,165l-7,79l31,-6c18,-3 62,-6 100,-6l68,0l-15,-37c-8,-21 -19,-47 -24,-58c-33,-76 -53,-307 -37,-439c43,-352 274,-662 597,-797c95,-40 142,-42 178,-6l27,28l0,212c0,239 -5,264 -64,298c-80,49 -139,121 -181,224c-22,53 -25,75 -25,180c1,161 16,194 160,345c219,229 309,429 321,709c8,187 -19,306 -108,486c-55,109 -113,188 -194,265c-150,142 -306,223 -494,260c-127,25 -206,28 -320,14zm-2886,-1323c-9,-9 -40,37 -79,115c-68,138 -54,303 38,445l42,64l3,-309c1,-170 0,-312 -4,-315zm3100,452c32,-23 60,-85 59,-129c-2,-68 -73,-144 -135,-144c-109,0 -189,125 -141,219c43,83 143,109 217,54zm-1491,13c45,-18 84,-67 92,-115c10,-61 -33,-135 -91,-157c-62,-23 -122,-13 -162,29c-56,59 -66,115 -29,180c36,66 119,93 190,63z"/>
   </g>
   <g transform="matrix(1.23071, 0, 0, 1.17198, -192046, -53982.9)" fill="#563b64" id="svg_34">
    <path id="svg_38" d="m159790.96608,49127.87109c-2,-2 -39,-7 -83,-10c-43,-3 -81,-8 -83,-10c-12,-11 11,-11 89,-3c78,10 168,8 295,-5l50,-6l-60,14c-59,13 -201,27 -208,20z"/>
    <path id="svg_39" d="m159538.96608,49084.87109c-163,-46 -396,-216 -495,-361c-13,-19 -27,-37 -30,-40c-4,-3 -21,-32 -40,-65c-18,-33 -34,-61 -36,-63c-1,-2 -30,24 -63,57c-138,135 -310,201 -524,201c-152,0 -273,-39 -410,-131l-57,-39l0,59c0,56 -2,62 -33,85c-34,26 -34,26 -246,26l-213,0l-28,-28l-28,-29l-20,26l-19,26l-398,3l-398,3l-38,-25c-21,-14 -57,-54 -81,-88c-46,-67 -139,-250 -131,-258c6,-6 19,17 65,114c20,44 46,92 58,108c11,15 19,30 18,33c-5,9 93,95 110,96c9,0 186,2 392,4c407,3 402,3 425,-52l12,-28l12,25c30,58 38,60 263,60c200,0 208,-1 232,-22c21,-19 27,-35 32,-88c3,-36 8,-67 10,-69c2,-2 20,10 41,26c21,17 52,38 68,47c17,9 37,20 45,25c68,41 171,68 290,74c78,5 194,-6 230,-20c8,-3 18,-6 21,-5c16,3 129,-48 182,-82c32,-21 85,-65 117,-98c32,-33 64,-57 69,-53c6,3 23,32 38,63c14,31 29,59 33,62c4,3 18,22 32,43c105,157 291,294 484,357c38,13 73,27 79,32c13,11 0,9 -70,-11z"/>
    <path id="svg_40" d="m160108.96608,49074.87109c28,-10 68,-26 90,-36c22,-10 42,-19 45,-20c23,-7 80,-40 80,-47c0,-4 7,-8 15,-8c8,0 24,-9 35,-20c11,-11 20,-17 20,-14c0,9 96,-70 123,-102c14,-16 43,-49 66,-73c76,-82 181,-286 195,-382c4,-24 12,-58 17,-74c5,-17 10,-49 11,-73c1,-23 5,-42 9,-42c10,0 0,123 -11,134c-5,5 -6,14 -4,20c13,33 -97,277 -171,381c-78,110 -225,234 -356,300c-68,35 -174,75 -197,75c-9,-1 6,-9 33,-19z"/>
    <path id="svg_41" d="m159613.96608,49037.87109c-212,-56 -423,-209 -545,-394c-36,-56 -96,-178 -119,-245c-6,-17 -10,-14 -30,21c-55,98 -129,177 -217,236c-69,46 -116,65 -203,83c-157,33 -310,9 -451,-69c-73,-42 -191,-151 -222,-207l-18,-34l-5,160l-5,160l-190,-4c-104,-2 -194,-7 -200,-13c-6,-6 -9,-195 -8,-535l2,-526l-23,39c-35,63 -55,119 -87,248l-29,120l0,327c0,289 -2,328 -16,333c-9,3 -178,6 -376,6l-361,0l-43,-46c-55,-61 -137,-208 -173,-315c-36,-102 -40,-126 -48,-255c-10,-177 41,-358 149,-524c85,-131 139,-190 318,-343c159,-137 291,-263 489,-470c77,-79 96,-95 104,-82c4,9 6,103 4,210c-3,107 -2,195 1,195c4,0 34,-34 66,-76c71,-89 170,-184 240,-229c61,-38 176,-79 189,-66c5,5 7,242 5,537l-3,529l44,-58c86,-115 207,-196 351,-234c88,-23 256,-23 329,0c30,9 58,17 63,17c4,0 8,-20 8,-44c0,-62 7,-75 47,-82c217,-41 392,-220 424,-434c18,-124 13,-120 123,-120c63,0 97,4 104,13c9,10 15,165 15,345l0,32l131,2c72,0 138,1 146,2c10,1 15,13 17,41c0,22 3,86 5,142c2,86 5,102 18,98c91,-27 240,-35 318,-17c41,10 51,6 33,-13c-20,-21 -74,-165 -93,-245c-42,-180 -25,-428 36,-564c8,-17 28,-60 44,-96c54,-121 194,-277 324,-361c69,-44 217,-104 228,-92c7,7 23,291 21,357c-2,40 -8,48 -76,101c-204,157 -269,419 -165,660c16,35 52,79 124,150c55,55 108,110 118,122c42,54 88,129 88,143c0,8 10,31 21,50c95,155 120,398 65,614c-82,320 -303,563 -611,673c-33,12 -78,25 -100,29c-22,4 -49,9 -60,11c-11,2 -69,5 -130,8c-96,4 -122,2 -205,-21zm-2728,-932c2,-265 1,-482 -2,-482c-15,0 -131,130 -169,189c-70,108 -85,160 -85,286c0,121 16,177 85,291c34,56 158,209 164,202c2,-2 5,-220 7,-486zm1574,218c41,-16 102,-80 120,-125c55,-145 -56,-295 -218,-295c-76,0 -132,24 -172,71c-44,52 -59,96 -52,154c12,99 23,121 79,158c29,20 68,40 87,45c37,10 119,6 156,-8zm1437,9c50,-14 103,-62 127,-115c45,-99 8,-223 -84,-279c-42,-25 -57,-29 -112,-28c-79,3 -131,28 -172,84c-39,52 -48,109 -31,185c27,120 147,188 272,153zm-533,-612c0,-7 7,-24 14,-39l15,-28l-45,0l-44,0l1,85l1,86l29,-46c16,-25 29,-51 29,-58zm-497,0c-3,-17 2,-28 22,-41c15,-10 25,-20 22,-22c-3,-3 -34,-6 -69,-8l-65,-2l46,48c25,26 47,48 47,48c1,0 -1,-10 -3,-23z"/>
    <path id="svg_42" d="m156778.96608,48379.87109c-39,-56 -85,-172 -84,-209c0,-12 10,12 22,53c23,75 65,158 92,180c13,11 15,-28 15,-299c0,-171 -4,-311 -9,-311c-9,0 -53,64 -64,94c-4,10 -10,16 -13,13c-3,-3 6,-25 20,-49c26,-45 65,-92 72,-86c3,4 6,379 5,586c-1,45 -5,82 -10,82c-5,0 -25,-24 -46,-54z"/>
    <path id="svg_43" d="m158343.96608,48286.87109c-91,-28 -140,-85 -140,-163c0,-54 24,-97 75,-136c46,-35 123,-39 176,-8c75,44 106,168 59,232c-38,51 -125,89 -170,75zm83,-27c45,-18 84,-67 92,-115c10,-61 -33,-135 -91,-157c-62,-23 -122,-13 -162,29c-56,59 -66,115 -29,180c36,66 119,93 190,63z"/>
    <path id="svg_44" d="m159775.96608,48278.87109c-47,-21 -93,-73 -91,-105c0,-8 6,-3 12,11c39,86 139,118 212,68c90,-62 88,-194 -5,-256c-83,-57 -197,5 -219,118c-7,34 -9,37 -9,14c0,-144 181,-225 270,-121c54,62 62,145 21,207c-43,66 -125,93 -191,64z"/>
    <path id="svg_45" d="m160699.96608,47669.87109c-11,-25 -24,-42 -30,-39c-5,3 -6,2 -3,-4c6,-10 -17,-53 -50,-94c-40,-49 -99,-114 -111,-122c-21,-14 -56,-50 -85,-89c-14,-20 -32,-42 -40,-50c-7,-7 -23,-47 -37,-88c-28,-85 -33,-215 -11,-285c33,-107 105,-206 187,-258c49,-31 60,-43 72,-87c7,-25 10,-28 11,-13c2,37 -20,72 -58,95c-80,47 -139,120 -181,223c-22,53 -25,75 -25,180c1,161 16,194 160,345c99,104 201,242 224,304c17,44 -3,29 -23,-18z"/>
    <path id="svg_46" d="m156314.96608,47611.87109c18,-35 102,-160 119,-179c8,-9 38,-40 66,-70c53,-56 78,-80 179,-164c107,-90 187,-166 360,-342c158,-161 206,-198 237,-189c7,3 25,7 40,10c26,6 71,66 49,66c-5,0 -12,-11 -15,-25c-7,-27 -56,-42 -102,-31c-16,4 -108,89 -233,214c-185,186 -237,235 -344,322c-135,110 -249,235 -327,358c-34,53 -50,69 -29,30z"/>
    <path id="svg_47" d="m157878.96608,47614.87109c-3,-6 -6,-196 -5,-423c0,-477 0,-476 -77,-492c-85,-18 -209,48 -361,192c-25,23 -49,42 -54,42c-4,0 -8,-21 -9,-47c0,-27 -2,-61 -4,-77c-2,-16 0,-37 5,-45c6,-11 9,12 10,67l0,84l68,-60c138,-122 244,-175 335,-170c41,2 54,8 71,31c20,28 21,39 24,458c1,236 5,429 8,429c3,0 15,-9 27,-21c53,-50 228,-130 314,-143c84,-13 148,-17 184,-11c68,12 43,20 -64,21c-120,1 -204,20 -302,69c-86,43 -103,54 -131,83c-24,24 -30,27 -39,13z"/>
    <path id="svg_48" d="m159677.96608,47448.87109c-3,-8 -4,-22 -1,-32c4,-15 5,-15 6,3c1,20 5,21 101,16c62,-3 100,-1 100,5c0,6 -24,10 -52,9c-29,0 -75,3 -101,6c-36,5 -49,4 -53,-7z"/>
    <path id="svg_49" d="m159864.96608,47392.87109c-13,-39 -13,-39 -2,-39c8,0 22,61 16,68c-1,2 -8,-11 -14,-29z"/>
    <path id="svg_50" d="m159680.96608,47375.87109c-5,-12 -7,-35 -6,-50c1,-15 -1,-34 -4,-42c-3,-8 -8,-27 -11,-41c-7,-33 -29,-39 -161,-45c-55,-2 -106,-6 -112,-9c-10,-3 -13,-46 -13,-169c0,-217 5,-210 -156,-213c-65,0 -127,2 -138,7c-28,10 -44,44 -50,104c-3,26 -8,51 -12,55c-12,11 3,-115 17,-137c31,-50 134,-66 266,-41c78,15 82,26 85,221l3,163l128,5c120,5 130,7 148,28c23,29 31,72 27,137c-2,40 -5,45 -11,27z"/>
    <path id="svg_51" d="m158603.96608,47355.87109c0,-6 18,-13 39,-17c61,-10 171,-68 222,-116c57,-53 99,-116 128,-189c16,-42 20,-47 15,-20c-11,60 -58,145 -106,194c-16,15 -28,30 -28,34c0,12 -101,71 -156,91c-68,26 -114,35 -114,23z"/>
    <path id="svg_52" d="m159819.96608,47225.87109c-22,-68 -26,-210 -11,-337c41,-342 276,-652 595,-786c91,-39 141,-41 175,-9c14,13 25,31 25,39c-1,10 -7,5 -16,-11c-8,-16 -20,-28 -27,-29c-7,0 -23,-2 -36,-5c-56,-10 -227,72 -342,164c-138,111 -258,276 -302,417c-60,187 -79,361 -56,504c10,62 7,92 -5,53z"/>
   </g>
   <g transform="matrix(1.23071, 0, 0, 1.17198, -192046, -53982.9)" fill="#dc120e" id="svg_33">
    <path id="svg_53" d="m159556.96608,49090.87109c-24,-5 -43,-14 -43,-18c0,-5 -7,-6 -15,-3c-8,4 -15,1 -15,-5c0,-6 -8,-11 -17,-11c-30,0 -157,-75 -235,-138c-80,-65 -192,-182 -183,-191c4,-3 9,0 13,6c4,6 31,38 60,71c93,107 259,213 408,262c100,33 115,49 27,27z"/>
    <path id="svg_54" d="m160113.96608,49072.87109c30,-12 64,-23 75,-26c11,-3 28,-13 39,-22c10,-9 20,-15 22,-14c7,5 74,-31 74,-39c0,-4 7,-8 15,-8c8,0 24,-9 35,-20c11,-11 20,-17 20,-14c0,9 96,-70 123,-102c14,-16 44,-49 67,-74c23,-25 51,-62 63,-82c11,-21 25,-38 29,-38c10,0 8,4 -45,82c-46,69 -160,178 -246,237c-92,62 -266,142 -310,141c-9,-1 9,-10 39,-21z"/>
    <path id="svg_55" d="m159646.96608,49047.87109c-35,-9 -63,-19 -63,-24c0,-4 -9,-6 -20,-3c-11,3 -20,0 -20,-6c0,-5 -6,-8 -14,-5c-7,3 -20,-2 -29,-10c-8,-8 -17,-12 -21,-9c-3,4 -6,1 -6,-6c0,-7 -4,-9 -10,-6c-5,3 -10,1 -10,-5c0,-6 -4,-9 -9,-6c-5,3 -21,-4 -37,-16c-15,-12 -34,-23 -41,-24c-8,-1 -28,-16 -45,-33c-18,-17 -35,-31 -39,-31c-5,0 -19,-10 -32,-22c-13,-13 -39,-37 -58,-55c-40,-38 -89,-92 -89,-98c0,-3 -12,-22 -27,-43c-16,-21 -44,-72 -63,-113c-19,-41 -37,-76 -40,-79c-3,-3 -6,-12 -8,-20c-1,-8 -6,-28 -11,-45l-8,-30l-19,40c-10,22 -21,42 -24,45c-24,24 -58,79 -52,85c4,5 1,5 -6,1c-8,-5 -16,2 -22,18c-5,14 -16,26 -24,26c-8,0 -24,14 -36,30c-12,17 -25,28 -30,25c-4,-3 -10,1 -13,9c-7,18 -95,68 -107,61c-6,-3 -10,-2 -10,3c0,13 -18,19 -104,37c-102,22 -285,18 -271,-5c2,-4 -7,-5 -22,-2c-17,3 -24,1 -19,-6c4,-6 -2,-8 -16,-4c-13,3 -19,1 -15,-5c5,-7 0,-9 -13,-6c-12,3 -20,0 -20,-6c0,-7 -4,-10 -9,-6c-6,3 -19,-4 -30,-16c-12,-13 -25,-18 -33,-13c-7,4 -9,3 -5,-1c4,-5 -5,-16 -21,-25c-50,-26 -127,-97 -173,-160c-23,-32 -44,-58 -45,-57c-3,3 -14,176 -15,255l-2,72l-59,0c-32,0 -58,-4 -58,-9c0,-5 -57,-10 -127,-10c-70,-1 -129,-4 -132,-7c-12,-12 -14,-524 -4,-881c3,-112 3,-203 -1,-203c-11,0 -67,122 -96,210c-54,166 -61,225 -60,563c1,170 -1,311 -3,313c-2,3 -170,4 -373,4c-340,0 -370,-1 -382,-17c-7,-10 -17,-18 -22,-18c-6,0 -9,-2 -8,-5c2,-3 -13,-26 -33,-52c-70,-92 -169,-333 -169,-412c0,-18 -6,-38 -12,-45c-11,-11 -10,-12 1,-6c10,6 12,4 6,-4c-9,-15 -14,-172 -6,-186c3,-5 7,-19 8,-30c4,-34 10,-59 20,-85c5,-14 22,-59 37,-102c15,-42 47,-108 72,-148c24,-40 44,-76 44,-81c0,-5 5,-9 10,-9c6,0 14,-8 17,-17c4,-10 18,-26 31,-37c13,-10 27,-29 32,-41c5,-13 55,-62 112,-111c217,-186 363,-321 475,-443c65,-69 122,-128 128,-130c5,-2 20,-13 32,-24c13,-11 26,-17 29,-14c4,4 6,95 5,202c0,107 2,195 7,195c4,0 34,-34 66,-76c97,-123 277,-277 305,-259c5,3 11,1 13,-5c1,-5 14,-11 28,-14c14,-2 26,-5 28,-7c1,-1 5,-2 10,-3c4,-1 13,-5 20,-10c7,-4 16,-6 18,-3c3,3 5,247 5,542l0,537l49,-65c89,-118 205,-195 350,-234c89,-23 256,-23 332,1c32,9 62,15 67,12c4,-3 7,-18 5,-33c-7,-57 5,-82 43,-89c53,-10 127,-39 180,-70c64,-37 182,-158 191,-195c2,-8 8,-17 13,-20c6,-3 11,-12 12,-20c2,-8 6,-19 9,-25c4,-6 14,-51 23,-100c23,-135 12,-124 120,-124c86,0 94,2 100,21c4,12 8,83 9,158c1,75 5,142 9,147c3,6 4,23 1,37l-4,27l132,2c73,0 139,2 147,2c13,1 16,29 23,249c1,29 4,36 17,33c92,-28 241,-37 319,-18c24,6 42,7 40,4c-23,-46 -58,-127 -60,-140c-2,-9 -9,-23 -16,-31c-8,-8 -11,-22 -9,-32c3,-11 1,-21 -3,-24c-5,-3 -9,-13 -8,-23c0,-9 -4,-28 -8,-42c-4,-14 -7,-44 -6,-68c1,-23 -2,-42 -6,-42c-10,0 -6,-153 6,-220c5,-30 8,-58 6,-62c-2,-4 0,-9 5,-12c5,-3 7,-15 4,-26c-3,-12 0,-20 7,-20c7,0 10,-7 6,-15c-3,-8 -1,-15 5,-15c6,0 9,-7 5,-15c-3,-8 -1,-15 5,-15c6,0 9,-7 5,-15c-3,-8 -1,-15 4,-15c8,0 36,-71 31,-79c-2,-2 1,-7 6,-10c16,-12 65,-93 51,-86c-7,3 -5,0 4,-8c10,-8 15,-16 12,-19c-3,-3 6,-15 20,-26c14,-10 23,-22 20,-24c-8,-9 155,-158 217,-198c57,-36 217,-106 225,-97c2,2 6,46 8,98c3,52 8,123 11,159c12,121 10,132 -32,165c-74,59 -153,138 -165,166c-7,16 -17,29 -21,29c-5,0 -5,4 -2,10c3,5 2,10 -3,10c-12,0 -54,109 -47,120c3,5 1,11 -4,14c-11,7 -14,39 -14,147c1,73 25,177 45,190c5,3 11,16 13,30c3,14 51,69 112,129c60,58 115,115 125,127c44,58 88,130 88,146c0,17 19,57 32,67c16,12 60,148 73,224c18,112 20,220 3,210c-10,-6 -9,-3 1,9c8,11 9,17 3,17c-6,0 -9,7 -6,15c4,8 3,23 -2,33c-8,17 -11,29 -18,67c-2,11 -8,32 -14,47c-6,15 -13,38 -15,50c-6,37 -61,151 -108,219c-88,131 -264,284 -376,329c-18,7 -33,17 -33,23c0,6 -2,8 -5,5c-3,-3 -40,5 -81,18c-41,13 -84,24 -94,24c-11,0 -20,4 -20,9c0,4 -12,7 -27,5c-15,-1 -31,3 -35,9c-6,9 -10,9 -17,-2c-5,-8 -11,-9 -15,-3c-9,15 -164,12 -233,-4zm-2761,-785c1,-178 5,-337 10,-354c5,-19 4,-31 -2,-33c-5,-2 -10,-8 -10,-13c0,-6 5,-7 10,-4c6,4 10,-17 10,-55c0,-43 -3,-59 -11,-54c-8,5 -10,-5 -5,-32c13,-81 14,-104 7,-104c-16,0 -102,83 -147,143c-81,107 -129,232 -127,332c1,89 28,215 45,215c5,0 6,5 3,10c-3,6 -1,10 5,10c6,0 8,5 5,10c-3,6 -1,10 5,10c6,0 8,5 5,10c-3,6 -2,10 2,10c10,0 42,51 40,63c-1,5 6,13 16,18c9,6 17,15 17,21c0,5 11,19 25,30c14,11 23,23 20,28c-5,9 64,74 71,67c3,-2 5,-150 6,-328zm1563,64c11,-3 36,-17 55,-32c19,-14 38,-25 43,-23c4,1 6,-1 5,-5c-3,-13 25,-63 35,-63c5,0 7,-6 4,-14c-3,-8 -1,-16 5,-18c15,-5 0,-125 -18,-142c-7,-8 -11,-16 -8,-18c2,-3 -7,-13 -21,-22c-14,-9 -23,-21 -20,-26c3,-6 -7,-15 -22,-22c-15,-7 -31,-17 -35,-23c-5,-6 -8,-6 -8,0c0,6 -4,4 -8,-3c-11,-17 -115,-25 -162,-12c-54,15 -116,64 -140,111c-24,47 -40,146 -22,135c8,-5 13,2 14,21c2,53 15,93 28,93c5,0 28,13 52,29c68,46 142,57 223,34zm1448,6c42,-11 117,-73 117,-95c0,-8 7,-17 16,-21c8,-3 13,-12 10,-19c-3,-8 -2,-14 2,-14c4,0 9,-25 10,-55c1,-31 -2,-55 -8,-55c-5,0 -7,-7 -4,-15c4,-8 1,-15 -6,-15c-6,0 -8,-4 -5,-10c3,-5 1,-10 -5,-10c-6,0 -8,-4 -5,-10c3,-5 1,-10 -4,-10c-6,0 -11,-4 -11,-10c0,-14 -37,-50 -44,-43c-3,3 -8,-2 -12,-11c-3,-9 -10,-13 -15,-10c-5,3 -9,1 -9,-4c0,-6 -14,-15 -31,-21c-40,-14 -52,-14 -44,-1c3,6 -1,10 -9,10c-9,0 -16,-4 -16,-10c0,-5 -5,-10 -11,-10c-5,0 -7,5 -3,11c4,8 -3,9 -22,5c-20,-4 -41,1 -69,17c-43,24 -109,112 -101,134c3,7 1,13 -4,13c-6,0 -10,21 -10,46c0,31 3,43 11,38c8,-5 10,1 7,19c-3,16 -1,24 5,20c6,-4 8,2 5,15c-4,12 -2,22 4,22c5,0 6,5 3,10c-3,6 -2,10 2,10c5,0 21,12 36,26c61,56 140,75 220,53zm-558,-554c15,-21 29,-51 31,-67c4,-37 11,-47 38,-58c15,-6 4,-9 -41,-9l-63,-1l0,92c0,50 2,89 4,87c3,-3 17,-22 31,-44zm-471,-54c-5,-24 -1,-31 25,-47c17,-10 31,-22 31,-26c0,-4 -34,-8 -75,-8c-73,0 -75,1 -65,20c6,11 13,20 16,20c3,0 2,-4 -1,-10c-3,-5 -4,-10 -1,-10c3,0 13,14 21,30c10,19 20,28 28,24c7,-4 9,-4 5,1c-4,4 -3,14 3,22c17,19 19,16 13,-16zm504,-388c-10,-2 -28,-2 -40,0c-13,2 -5,4 17,4c22,1 32,-1 23,-4zm-141,-50c-3,-10 -5,-2 -5,17c0,19 2,27 5,18c2,-10 2,-26 0,-35zm-2197,-200c0,-8 -9,0 -50,45l-45,47l48,-45c26,-24 47,-45 47,-47zm2197,-66c-2,-23 -3,-1 -3,48c0,50 1,68 3,42c2,-26 2,-67 0,-90zm-2000,21c-2,-18 -4,-6 -4,27c0,33 2,48 4,33c2,-15 2,-42 0,-60zm500,-110c-2,-35 -3,-9 -3,57c0,66 1,94 3,63c2,-32 2,-86 0,-120zm2220,60c-2,-18 -4,-4 -4,32c0,36 2,50 4,33c2,-18 2,-48 0,-65zm-2451,40l29,-33l-32,29c-31,28 -38,36 -30,36c2,0 16,-15 33,-32zm2681,-60c-2,-13 -4,-5 -4,17c-1,22 1,32 4,23c2,-10 2,-28 0,-40zm-2954,-42c4,29 4,29 6,-3c0,-18 -3,-33 -7,-33c-4,0 -26,19 -47,43l-40,42l42,-39l41,-39l5,29zm3234,-538c-2,-24 -4,-7 -4,37c0,44 2,63 4,43c2,-21 2,-57 0,-80zm-267,37c19,-19 32,-35 29,-35c-3,0 -20,16 -39,35c-19,19 -32,35 -29,35c3,0 20,-16 39,-35z"/>
    <path id="svg_56" d="m158499.96608,48057.87109c-51,-94 -159,-113 -233,-41c-18,17 -33,27 -33,22c0,-17 70,-72 98,-78c39,-8 91,1 127,22c32,18 79,93 73,113c-3,7 -17,-10 -32,-38z"/>
    <path id="svg_57" d="m159775.96608,48278.87109c-47,-21 -93,-73 -91,-105c0,-8 6,-3 12,11c27,59 74,90 138,91c89,1 162,-98 138,-186c-10,-37 -63,-109 -73,-99c-3,3 -6,2 -6,-3c0,-14 -67,-17 -105,-4c-18,6 -41,20 -50,30c-10,11 -22,20 -27,20c-12,0 21,-33 54,-54c34,-22 107,-23 145,-2c15,8 24,15 19,16c-5,0 3,10 18,21c15,12 25,24 22,26c-3,3 1,15 9,27c8,11 15,40 15,63c0,108 -122,191 -218,148z"/>
    <path id="svg_58" d="m156459.96608,48787.87109c-22,-15 -62,-63 -97,-116c-60,-92 -67,-108 -48,-108c5,0 7,5 4,10c-3,6 -1,10 5,10c6,0 8,5 5,10c-3,6 -1,10 6,10c7,0 9,3 6,6c-7,7 29,62 53,81c8,7 11,13 5,13c-18,0 83,87 107,91c12,3 85,4 160,4c75,-1 135,2 132,6c-2,4 -71,8 -152,8c-143,1 -149,0 -186,-25z"/>
    <path id="svg_59" d="m157033.96608,48806.87109c0,-5 53,-8 117,-7c128,2 148,-4 168,-53l12,-28l12,25c30,58 38,60 263,60c201,0 208,-1 232,-22c17,-15 27,-36 29,-61c6,-55 17,-58 17,-4c0,40 -4,49 -33,71c-34,26 -34,26 -246,26l-213,0l-28,-28l-28,-29l-20,26c-19,25 -22,26 -151,29c-72,2 -131,0 -131,-5z"/>
    <path id="svg_60" d="m158243.96608,48800.87109c0,-9 158,-2 167,7c3,3 -33,4 -81,3c-47,-1 -86,-5 -86,-10z"/>
    <path id="svg_61" d="m158176.96608,48796.87109c-13,-2 -23,-9 -23,-14c0,-12 60,-2 75,12c9,9 -11,10 -52,2z"/>
    <path id="svg_62" d="m158552.96608,48779.87109c7,-9 17,-14 21,-11c12,8 121,-39 183,-79c32,-21 85,-65 119,-99l60,-62l19,24c21,26 24,41 8,41c-5,0 -7,-4 -4,-10c3,-5 1,-10 -5,-10c-6,0 -8,-4 -5,-10c7,-11 -6,-13 -29,-4c-9,3 -16,12 -16,19c0,7 -15,25 -32,39c-18,14 -42,35 -53,45c-47,44 -170,106 -249,125c-26,6 -28,5 -17,-8z"/>
    <path id="svg_63" d="m158118.96608,48773.87109c-4,-6 -10,-8 -15,-5c-5,3 -16,-2 -24,-11c-9,-8 -16,-12 -16,-9c0,10 -108,-52 -153,-88c-21,-16 -36,-32 -33,-34c3,-3 22,8 43,24c21,17 52,38 68,47c17,9 37,20 45,25c8,5 36,19 63,30c45,20 58,31 38,31c-6,0 -13,-5 -16,-10z"/>
    <path id="svg_64" d="m160699.96608,47669.87109c-11,-25 -24,-42 -30,-39c-5,3 -6,2 -3,-4c10,-15 -25,-66 -108,-162c-37,-43 -14,-31 28,14c28,31 125,179 136,209c17,44 -3,29 -23,-18z"/>
    <path id="svg_65" d="m156314.96608,47611.87109c18,-35 102,-160 119,-179c8,-9 38,-40 66,-70c53,-56 78,-80 179,-164c77,-65 169,-149 274,-252c47,-46 87,-80 90,-78c2,3 -49,58 -115,123c-109,106 -167,159 -257,232c-135,110 -249,235 -327,358c-34,53 -50,69 -29,30z"/>
    <path id="svg_66" d="m159678.96608,47373.87109c-4,-11 -5,-33 -4,-48c1,-15 -1,-34 -4,-42c-3,-8 -8,-27 -11,-41c-7,-33 -29,-39 -161,-45c-55,-2 -106,-6 -112,-9c-10,-3 -13,-46 -13,-169c0,-220 7,-211 -170,-211c-126,0 -133,1 -148,23c-18,27 -37,30 -20,2c21,-34 72,-51 146,-50c103,2 170,18 185,43c7,14 14,82 17,187l5,165l125,5c69,3 131,9 139,14c24,15 41,74 40,136c-2,65 -4,71 -14,40z"/>
    <path id="svg_67" d="m159839.96608,47331.87109c-12,-38 -14,-78 -5,-78c6,0 7,5 4,10c-3,6 -2,10 4,10c6,0 8,7 5,15c-4,8 -1,22 5,29c8,10 9,16 1,21c-5,3 -12,0 -14,-7z"/>
    <path id="svg_68" d="m160326.96608,47126.87109c-21,-75 5,-281 36,-291c7,-2 5,11 -6,40c-14,33 -18,71 -18,161c0,64 -1,117 -2,117c-2,0 -6,-12 -10,-27z"/>
    <path id="svg_69" d="m159807.96608,47085.87109c-12,-8 -17,-112 -4,-112c4,0 8,19 8,43c0,23 3,50 7,60c8,19 6,21 -11,9z"/>
    <path id="svg_70" d="m158996.96608,47018.87109c6,-19 12,-33 14,-32c6,7 -9,67 -17,67c-5,0 -3,-16 3,-35z"/>
    <path id="svg_71" d="m159819.96608,46858.87109c3,-11 8,-41 10,-67c3,-49 36,-142 82,-233c96,-193 287,-370 492,-456c91,-39 141,-41 175,-9c14,13 25,31 25,39c-1,10 -7,5 -16,-11c-8,-16 -20,-28 -27,-29c-7,0 -23,-2 -36,-5c-56,-10 -227,72 -342,164c-108,86 -198,197 -266,327c-21,40 -73,198 -73,226c-1,7 -8,28 -16,44c-8,17 -12,21 -8,10z"/>
   </g>
   <g transform="matrix(1.23071, 0, 0, 1.17198, -192046, -53982.9)" fill="#1666a4" id="svg_32">
    <path id="svg_72" d="m159791.96608,49128.87109c-2,-3 -40,-8 -84,-11c-43,-3 -81,-8 -83,-10c-12,-11 11,-11 89,-3c78,10 168,8 295,-5c45,-5 46,-5 15,4c-19,5 -64,12 -100,15c-36,3 -79,8 -96,11c-17,2 -33,2 -36,-1z"/>
    <path id="svg_73" d="m159556.96608,49090.87109c-24,-5 -43,-14 -43,-18c0,-5 -7,-6 -15,-3c-8,4 -15,1 -15,-5c0,-6 -7,-11 -15,-11c-26,0 -147,-69 -223,-127c-78,-60 -207,-192 -197,-202c3,-3 9,0 13,6c4,6 31,38 60,71c93,107 259,213 408,262c100,33 115,49 27,27z"/>
    <path id="svg_74" d="m160113.96608,49073.87109c74,-29 105,-35 53,-10c-23,11 -57,23 -75,26c-24,4 -17,-1 22,-16z"/>
    <path id="svg_75" d="m160221.96608,49031.87109c7,-7 16,-13 20,-14c16,-1 82,-38 82,-46c0,-4 7,-8 15,-8c8,0 24,-9 35,-20c11,-11 20,-17 20,-14c0,9 96,-70 123,-102c14,-16 44,-49 67,-74c23,-25 51,-62 63,-82c11,-21 25,-38 29,-38c13,0 -66,113 -123,175c-78,84 -231,194 -314,225c-25,9 -28,9 -17,-2z"/>
    <path id="svg_76" d="m159738.96608,48977.87109c-11,-2 -45,-9 -75,-15c-152,-31 -314,-123 -431,-247c-89,-93 -136,-162 -176,-262c-60,-148 -66,-193 -67,-542c-1,-174 -4,-320 -8,-324c-5,-4 -72,-9 -150,-10c-79,-2 -146,-3 -150,-4c-8,0 -8,-43 -1,-73c2,-9 8,-15 13,-12c5,3 11,1 14,-4c3,-5 17,-12 30,-15c13,-3 46,-16 73,-28c26,-12 51,-21 56,-20c4,1 7,-2 7,-7c0,-5 15,-18 33,-30c43,-26 122,-102 130,-123c3,-10 11,-18 16,-18c5,0 12,-11 15,-25c4,-17 11,-23 19,-19c7,4 9,4 5,-1c-4,-4 -2,-17 4,-29c7,-11 11,-24 10,-28c-1,-5 3,-8 9,-8c5,0 7,-4 4,-10c-3,-5 -2,-10 4,-10c6,0 7,-7 4,-17c-5,-11 -3,-14 6,-8c10,5 11,2 6,-14c-4,-13 -2,-21 5,-21c7,0 9,-8 5,-19c-3,-11 -1,-22 5,-26c5,-3 7,-18 4,-32c-5,-20 -4,-24 6,-18c10,6 12,4 7,-8c-5,-14 0,-17 23,-17c17,0 30,5 30,11c0,5 5,7 10,4c6,-4 10,37 10,117c0,83 -3,118 -10,108c-8,-12 -10,-11 -10,6c0,11 3,24 8,28c4,4 7,21 7,37c0,16 -3,29 -7,29c-5,0 -8,15 -7,33c0,27 2,29 9,12c5,-11 9,-14 9,-7c1,6 9,12 19,12c10,0 24,6 31,13c11,10 13,10 7,0c-5,-9 0,-13 16,-13c18,0 20,2 8,10c-10,6 20,8 89,6c57,-2 110,-2 117,1c19,7 19,217 -1,233c-9,8 -56,10 -144,9c-85,-2 -135,1 -142,8c-8,8 -10,108 -7,334c4,322 4,324 31,398c36,99 69,154 136,225c93,98 198,155 331,180l65,12l1,110c0,60 -1,115 -4,122c-4,12 -18,13 -57,6zm-508,-1957c-2,-23 -3,-1 -3,48c0,50 1,68 3,42c2,-26 2,-67 0,-90z"/>
    <path id="svg_77" d="m159870.96608,48976.87109c-4,-3 -7,-59 -7,-123l0,-116l75,-13c116,-19 223,-77 315,-171c114,-115 170,-252 171,-413c1,-188 -55,-318 -199,-466c-52,-52 -111,-120 -131,-150c-42,-62 -89,-151 -95,-178c-1,-10 -8,-29 -13,-43c-6,-14 -9,-29 -6,-33c3,-4 -1,-14 -7,-22c-6,-8 -9,-19 -6,-24c4,-5 1,-13 -5,-17c-6,-3 -9,-19 -5,-35c3,-16 2,-29 -2,-29c-4,0 -7,-54 -7,-119c0,-68 4,-117 9,-114c5,4 6,-10 2,-32c-6,-28 -4,-35 5,-29c9,5 10,0 5,-20c-4,-16 -2,-26 4,-26c6,0 9,-4 5,-10c-3,-5 2,-26 11,-47c9,-21 19,-47 21,-57c2,-10 10,-24 19,-30c8,-6 16,-18 18,-26c6,-35 18,-59 32,-64c8,-3 12,-10 9,-16c-3,-5 -1,-10 4,-10c6,0 11,-6 11,-14c0,-8 7,-16 15,-20c8,-3 15,-11 15,-19c0,-7 13,-23 30,-35c16,-13 29,-28 27,-35c-1,-6 3,-11 10,-10c7,2 17,-6 23,-17c6,-11 15,-18 21,-15c5,4 8,1 7,-6c-2,-7 3,-13 10,-14c7,0 17,-7 22,-15c5,-8 10,-10 10,-5c0,6 10,-1 21,-15c11,-14 17,-18 13,-10c-4,8 5,3 20,-12c16,-15 32,-25 37,-22c5,3 9,1 9,-5c0,-6 7,-7 17,-4c12,5 14,3 8,-7c-5,-9 -4,-11 4,-6c6,4 17,3 24,-2c16,-13 13,256 -3,272c-5,5 -10,7 -10,3c0,-4 -16,10 -36,31c-20,20 -31,28 -23,17c10,-16 7,-15 -14,4c-29,26 -35,36 -14,26c6,-4 -2,7 -20,23c-17,17 -29,33 -26,36c3,3 -2,8 -11,12c-9,3 -13,10 -10,15c3,5 -2,12 -10,15c-9,3 -13,10 -10,15c3,5 0,9 -6,9c-6,0 -8,5 -5,10c3,6 1,10 -5,10c-6,0 -8,5 -5,10c3,6 2,10 -4,10c-6,0 -7,7 -4,17c5,11 3,14 -6,8c-10,-6 -11,-2 -6,15c5,16 4,20 -5,15c-9,-5 -10,-1 -5,15c5,15 4,20 -4,16c-7,-5 -9,4 -5,26c4,26 3,30 -5,18c-9,-11 -10,-4 -5,30c4,31 3,41 -4,31c-7,-10 -10,11 -9,68c0,51 4,77 9,69c6,-9 8,-2 5,19c-2,18 1,33 6,33c5,0 7,14 3,30c-4,22 -2,29 6,24c7,-5 9,0 6,14c-4,12 -2,20 2,17c12,-7 23,32 14,46c-5,8 -3,9 6,4c10,-6 12,-4 7,9c-4,9 -3,14 2,11c9,-5 27,32 23,48c-1,4 3,7 9,7c5,0 7,5 4,10c-4,6 -1,9 7,8c7,-2 12,5 12,14c-1,10 1,16 5,15c10,-3 160,152 201,208c112,150 181,379 167,552c-34,410 -299,716 -690,797c-85,18 -101,19 -110,9z"/>
    <path id="svg_78" d="m159347.96608,48918.87109c-10,-8 -14,-14 -9,-15c15,0 40,18 34,24c-3,3 -14,-1 -25,-9z"/>
    <path id="svg_79" d="m156453.96608,48777.87109c-39,-31 -69,-64 -57,-64c2,0 22,17 44,39c23,21 52,40 64,42c13,3 86,4 161,4c75,-1 135,2 132,6c-2,4 -71,8 -152,8l-147,1l-45,-36z"/>
    <path id="svg_80" d="m156878.96608,48803.87109c-13,-5 2,-7 40,-3c33,3 62,7 64,9c8,8 -84,2 -104,-6z"/>
    <path id="svg_81" d="m157033.96608,48806.87109c0,-5 53,-8 117,-7c128,2 148,-4 168,-53l12,-28l12,25c30,58 38,60 263,60c201,0 208,-1 232,-22c17,-15 27,-36 29,-61c6,-51 17,-60 17,-13c0,48 -13,72 -50,91c-23,12 -71,15 -235,15l-207,0l-29,-29l-29,-29l-21,26c-20,26 -24,27 -150,30c-71,2 -129,0 -129,-5z"/>
    <path id="svg_82" d="m158246.96608,48800.87109c-5,-9 155,-2 164,7c3,3 -31,5 -77,3c-45,-1 -84,-6 -87,-10z"/>
    <path id="svg_83" d="m158433.96608,48803.87109c-12,-8 -9,-10 11,-10c15,0 42,-3 60,-6c19,-4 31,-3 26,1c-4,5 -15,9 -25,10c-9,1 -26,5 -37,8c-11,4 -27,2 -35,-3z"/>
    <path id="svg_84" d="m158176.96608,48793.87109c-13,-5 -23,-12 -23,-15c0,-9 63,5 75,16c12,12 -23,11 -52,-1z"/>
    <path id="svg_85" d="m158552.96608,48779.87109c7,-9 17,-14 21,-11c12,8 121,-39 183,-79c32,-21 85,-65 119,-99l60,-62l19,24c21,26 24,41 8,41c-5,0 -7,-4 -4,-10c3,-5 1,-10 -5,-10c-6,0 -9,-4 -6,-9c13,-20 -22,-18 -35,2c-58,88 -219,192 -343,221c-26,6 -28,5 -17,-8z"/>
    <path id="svg_86" d="m158118.96608,48773.87109c-4,-6 -10,-8 -15,-5c-5,3 -14,0 -22,-7c-7,-7 -20,-14 -28,-16c-21,-5 -155,-89 -170,-107c-20,-24 -1,-17 39,14c20,15 50,36 66,45c17,9 37,20 45,25c8,5 36,19 63,30c45,20 58,31 38,31c-6,0 -13,-5 -16,-10z"/>
    <path id="svg_87" d="m158198.96608,48732.87109c-38,-11 -72,-23 -75,-27c-3,-4 -12,-8 -20,-10c-8,-2 -17,-8 -18,-13c-2,-5 -9,-6 -14,-3c-7,4 -8,2 -4,-4c5,-8 18,-6 44,6c20,9 38,20 40,24c2,4 10,4 18,1c8,-3 14,-1 14,5c0,6 9,8 20,5c11,-3 20,-1 20,3c0,5 44,10 98,12c116,4 218,-15 309,-57c34,-17 63,-27 63,-23c0,4 4,0 10,-8c5,-8 12,-11 15,-8c10,9 -87,69 -102,63c-7,-2 -13,0 -13,4c0,12 -19,18 -104,36c-97,20 -216,18 -301,-6z"/>
    <path id="svg_88" d="m156575.96608,48665.87109c-26,-3 -42,-15 -77,-60c-211,-268 -233,-638 -56,-939c56,-96 136,-187 250,-283c23,-19 52,-45 63,-57c12,-13 26,-23 30,-23c5,0 21,-14 35,-30c13,-17 28,-28 33,-25c4,3 24,-15 45,-40c20,-25 40,-43 45,-40c4,3 32,-21 61,-53c29,-31 56,-56 61,-54c5,1 7,-2 4,-7c-3,-5 30,-41 73,-80c73,-66 80,-70 84,-49c2,13 4,10 3,-9c-1,-17 2,-29 6,-27c4,3 8,70 8,150c0,107 -3,143 -11,138c-9,-5 -10,1 -5,22c12,47 15,84 7,84c-4,0 -7,15 -7,33c1,31 2,32 38,28c21,-1 36,-6 34,-10c-3,-4 4,-20 15,-37c10,-16 19,-37 19,-46c0,-10 5,-18 10,-18c6,0 10,-7 10,-15c0,-8 5,-15 12,-15c6,0 9,-3 6,-6c-3,-3 5,-17 18,-31c13,-14 21,-29 18,-34c-2,-5 4,-14 16,-21c11,-7 20,-17 20,-22c0,-5 18,-24 40,-43c22,-19 40,-41 40,-49c0,-8 7,-14 14,-14c8,0 27,-16 42,-35c14,-19 32,-35 39,-35c7,0 15,-7 19,-15c3,-8 12,-15 21,-15c8,0 15,-4 15,-8c0,-5 16,-13 35,-19c34,-11 35,-10 35,15c0,21 -2,24 -10,12c-7,-10 -10,23 -10,103c0,71 4,117 10,117c6,0 10,14 10,30c0,17 -4,30 -9,30c-9,0 -6,70 4,97c2,7 0,13 -5,13c-5,0 -7,17 -5,38c7,50 6,-11 6,710c0,513 -3,642 -13,643c-52,2 -233,-3 -237,-7c-3,-3 -4,-270 -3,-595l1,-590l-29,21c-94,67 -189,250 -236,458c-25,113 -26,126 -25,415l2,297l-111,0c-66,0 -111,-4 -111,-10c-5,-41 -4,-77 3,-87c5,-6 5,-14 0,-17c-6,-4 -8,-213 -6,-536c2,-291 0,-530 -4,-530c-20,0 -125,83 -196,155c-86,87 -156,194 -188,285c-29,82 -35,220 -13,305c9,38 26,90 38,115c31,68 110,181 173,249c31,34 54,64 51,67c-7,7 -207,12 -255,6zm655,-1624c-2,-18 -4,-6 -4,27c0,33 2,48 4,33c2,-15 2,-42 0,-60z"/>
    <path id="svg_89" d="m158268.96608,48339.87109c-27,-13 -61,-35 -74,-50c-32,-34 -22,-33 31,3c24,16 60,33 80,39c45,12 122,6 165,-15c33,-15 96,-78 105,-104c3,-8 9,-11 13,-7c13,12 -35,77 -78,107c-85,57 -161,66 -242,27z"/>
    <path id="svg_90" d="m158343.96608,48286.87109c-51,-16 -88,-38 -107,-65c-12,-18 -20,-34 -17,-37c3,-3 10,3 16,13c29,52 99,84 161,72c51,-9 105,-55 113,-94c3,-18 10,-35 15,-38c5,-3 7,-10 4,-15c-4,-5 -2,-9 4,-9c15,0 0,72 -22,101c-35,48 -123,86 -167,72z"/>
    <path id="svg_91" d="m158204.96608,48113.87109c0,-19 3,-42 9,-50c15,-24 17,-8 4,40c-12,45 -12,45 -13,10z"/>
    <path id="svg_92" d="m158509.96608,48073.87109c-25,-52 -37,-65 -81,-86c-54,-26 -117,-15 -162,29c-18,17 -33,27 -33,22c0,-17 70,-72 98,-78c39,-8 91,1 127,22c32,18 79,93 72,114c-2,6 -11,-4 -21,-23z"/>
    <path id="svg_93" d="m159738.96608,48344.87109c-22,-10 -56,-35 -74,-55c-40,-41 -30,-49 12,-10c85,79 211,84 293,12c20,-18 40,-42 45,-55c5,-13 13,-23 19,-23c17,0 11,14 -22,58c-64,83 -183,115 -273,73z"/>
    <path id="svg_94" d="m159775.96608,48278.87109c-47,-21 -93,-73 -92,-105c1,-8 9,0 18,19c21,42 57,70 103,80c100,22 196,-81 169,-181c-11,-39 -63,-111 -74,-101c-3,3 -6,2 -6,-3c0,-14 -67,-17 -105,-4c-18,6 -41,20 -50,30c-10,11 -22,20 -27,20c-12,0 21,-33 54,-54c34,-22 107,-23 145,-2c15,8 24,15 19,16c-5,0 3,10 18,21c15,12 25,24 22,26c-3,3 1,15 9,27c8,11 15,40 15,63c0,108 -122,191 -218,148z"/>
    <path id="svg_95" d="m159673.96608,48119.87109c0,-14 4,-27 8,-30c5,-3 6,8 4,25c-5,35 -12,38 -12,5z"/>
    <path id="svg_96" d="m156847.96608,48581.87109l-29,-32l29,22c16,12 31,21 33,19c2,-3 4,-150 5,-328c1,-178 5,-335 9,-349c4,-14 8,138 8,338c1,396 2,391 -55,330z"/>
    <path id="svg_97" d="m160737.96608,48497.87109c18,-44 37,-100 40,-125c4,-24 12,-58 17,-74c5,-17 10,-49 11,-73c1,-23 5,-42 9,-42c9,0 1,118 -8,134c-3,5 -7,21 -8,35c-3,33 -60,181 -80,207c-8,10 0,-17 19,-62z"/>
    <path id="svg_98" d="m156240.96608,48426.87109c-10,-17 -25,-83 -19,-83c9,0 35,81 28,87c-2,2 -6,1 -9,-4z"/>
    <path id="svg_99" d="m156787.96608,48390.87109c-34,-45 -48,-71 -64,-111c-16,-44 -4,-29 24,28c15,30 36,67 49,82l22,29l6,-50l6,-50l1,58c1,31 -1,57 -5,57c-5,0 -22,-20 -39,-43z"/>
    <path id="svg_100" d="m156210.96608,48326.87109c-13,-22 -31,-170 -31,-258c0,-78 6,-122 28,-200c27,-102 72,-212 82,-203c3,3 -8,34 -24,69c-49,107 -67,205 -67,369c1,83 6,162 13,184c11,37 10,58 -1,39z"/>
    <path id="svg_101" d="m156825.96608,48278.87109c1,-20 4,-31 8,-25c7,11 2,60 -6,60c-2,0 -3,-16 -2,-35z"/>
    <path id="svg_102" d="m160734.96608,48126.87109c-3,-114 -18,-205 -49,-300c-16,-45 -25,-83 -21,-83c13,0 60,144 74,225c15,85 18,235 5,235c-4,0 -8,-35 -9,-77z"/>
    <path id="svg_103" d="m160804.96608,48018.87109c-1,-22 -6,-58 -11,-80c-5,-22 -14,-64 -21,-92c-6,-29 -15,-50 -20,-47c-5,3 -6,-2 -2,-11c5,-13 7,-14 14,-3c17,27 50,195 46,233l-4,40l-2,-40z"/>
    <path id="svg_104" d="m156827.96608,47943.87109c0,-58 1,-81 3,-52c2,28 2,76 0,105c-2,28 -3,5 -3,-53z"/>
    <path id="svg_105" d="m156763.96608,47847.87109c0,-6 7,-19 15,-30c8,-10 14,-14 14,-9c0,6 -6,19 -14,29c-8,11 -15,15 -15,10z"/>
    <path id="svg_106" d="m157799.96608,47816.87109c-4,-10 -4,-14 0,-11c4,4 29,-21 55,-57c88,-116 204,-193 349,-232c89,-23 256,-23 332,1c32,9 62,15 68,11c5,-3 10,1 10,9c0,20 -12,20 -72,2c-160,-49 -375,-18 -519,75c-58,38 -179,151 -179,168c0,4 -8,18 -19,30c-17,20 -19,20 -25,4z"/>
    <path id="svg_107" d="m160699.96608,47669.87109c-11,-25 -24,-42 -30,-39c-5,3 -6,2 -3,-4c10,-15 -25,-66 -108,-162c-37,-43 -14,-31 28,14c49,53 157,235 139,235c-4,0 -16,-20 -26,-44z"/>
    <path id="svg_108" d="m160584.96608,47622.87109c-25,-38 -76,-99 -114,-136c-69,-68 -147,-159 -147,-171c0,-8 197,183 222,216c46,59 89,132 86,145c-2,9 -22,-14 -47,-54z"/>
    <path id="svg_109" d="m156314.96608,47611.87109c18,-35 102,-160 119,-179c8,-9 38,-40 66,-70c53,-57 99,-99 149,-137c45,-35 208,-184 304,-279c47,-45 87,-80 90,-78c2,3 -49,58 -115,123c-109,106 -167,159 -257,232c-135,110 -249,235 -327,358c-34,53 -50,69 -29,30z"/>
    <path id="svg_110" d="m157878.96608,47614.87109c-7,-12 -7,-792 0,-799c3,-3 5,173 5,391c0,218 2,397 5,397c3,0 16,-9 28,-21c53,-50 228,-130 314,-143c84,-13 148,-17 184,-11c68,12 43,20 -64,21c-120,1 -204,20 -302,69c-86,43 -103,54 -131,83c-24,24 -30,27 -39,13z"/>
    <path id="svg_111" d="m159603.96608,47502.87109c1,-47 3,-60 11,-47c5,9 7,31 4,48c-5,27 -3,31 12,26c94,-28 242,-37 321,-18c24,6 42,7 40,4c-23,-46 -58,-127 -60,-140c-2,-9 -9,-23 -16,-31c-8,-8 -11,-22 -9,-32c3,-11 1,-22 -4,-25c-11,-7 -12,-24 -1,-24c4,0 18,32 31,71c13,39 38,101 57,137c19,36 32,67 30,69c-2,2 -23,-1 -47,-7c-84,-23 -266,-10 -351,25c-16,6 -18,0 -18,-56z"/>
    <path id="svg_112" d="m156521.96608,47443.87109c5,-14 42,-54 83,-89c260,-225 393,-348 501,-464c68,-73 134,-138 147,-145c19,-10 15,-3 -15,31c-97,109 -401,403 -514,498c-69,57 -144,124 -168,149c-34,35 -41,40 -34,20z"/>
    <path id="svg_113" d="m159677.96608,47448.87109c-3,-8 -4,-22 -1,-32c4,-15 5,-15 6,3c1,20 5,21 95,16c55,-3 96,-1 99,5c4,6 -14,10 -46,9c-29,0 -74,3 -100,6c-36,5 -49,4 -53,-7z"/>
    <path id="svg_114" d="m158467.96608,47442.87109c-5,-9 3,-10 30,-5c28,5 36,4 36,-8c0,-17 50,-79 58,-71c3,3 -4,15 -15,28c-11,12 -24,32 -28,45c-5,17 -14,22 -40,22c-19,0 -37,-5 -41,-11z"/>
    <path id="svg_115" d="m158613.96608,47424.87109c0,-5 15,-12 33,-16c134,-28 263,-107 330,-201c35,-50 57,-60 30,-13c-27,47 -141,148 -203,179c-54,27 -151,60 -177,60c-7,0 -13,-4 -13,-9z"/>
    <path id="svg_116" d="m159863.96608,47387.87109c-12,-31 -12,-34 -1,-34c5,0 11,14 13,30c6,37 1,38 -12,4z"/>
    <path id="svg_117" d="m160477.96608,47386.87109c-16,-16 -36,-37 -44,-48c-15,-20 -15,-20 10,0c36,29 80,75 71,75c-4,0 -21,-12 -37,-27z"/>
    <path id="svg_118" d="m159678.96608,47373.87109c-4,-6 -6,-25 -4,-43c1,-17 -1,-39 -4,-47c-3,-8 -8,-27 -11,-41c-7,-33 -29,-39 -161,-45c-55,-2 -106,-6 -112,-9c-10,-3 -13,-46 -13,-169c0,-220 7,-211 -170,-211c-126,0 -133,1 -148,23c-18,27 -37,30 -20,2c21,-34 72,-51 146,-50c103,2 170,18 185,43c7,14 14,82 17,187l5,165l125,5c69,3 131,9 139,14c23,15 42,75 40,131c-2,57 -4,62 -14,45z"/>
    <path id="svg_119" d="m158603.96608,47355.87109c0,-5 17,-12 38,-16c52,-8 169,-67 219,-111c23,-20 60,-65 84,-101c23,-35 44,-62 47,-60c7,7 -48,93 -85,133c-18,19 -33,38 -33,42c0,11 -102,70 -156,90c-66,25 -114,35 -114,23z"/>
    <path id="svg_120" d="m159840.96608,47326.87109c-15,-54 -17,-73 -7,-73c6,0 8,5 5,10c-3,6 -2,10 4,10c6,0 8,7 5,15c-4,8 -1,22 5,29c8,9 8,16 2,20c-5,4 -12,-2 -14,-11z"/>
    <path id="svg_121" d="m159309.96608,47261.87109c-11,-32 -11,-88 -2,-85c6,2 10,18 9,35l-2,32l132,2c166,1 162,1 162,13c0,6 -58,11 -148,13c-114,2 -148,0 -151,-10z"/>
    <path id="svg_122" d="m159879.96608,47197.87109c-4,-9 -4,-32 0,-50c3,-19 2,-34 -3,-34c-10,0 -7,-152 4,-220c5,-29 8,20 9,138c0,100 -1,182 -2,182c-1,0 -5,-7 -8,-16z"/>
    <path id="svg_123" d="m159811.96608,47180.87109c-5,-10 -8,-33 -7,-50c0,-31 1,-31 10,-7c5,13 9,36 7,50c-3,21 -4,22 -10,7z"/>
    <path id="svg_124" d="m157299.96608,47138.87109c-3,-8 1,-18 8,-22c8,-5 43,-44 78,-88c36,-44 91,-104 124,-134c65,-60 162,-126 171,-117c4,3 4,7 2,9c-2,2 -33,24 -69,49c-83,59 -175,150 -246,244c-30,41 -57,74 -58,74c-2,0 -6,-7 -10,-15z"/>
    <path id="svg_125" d="m160326.96608,47126.87109c-20,-72 5,-281 34,-290c6,-2 1,22 -9,54c-16,47 -19,78 -16,161c2,56 2,102 1,102c-1,0 -6,-12 -10,-27z"/>
    <path id="svg_126" d="m159804.96608,47084.87109c-8,-5 -10,-14 -6,-21c6,-9 10,-8 17,4c12,21 7,28 -11,17z"/>
    <path id="svg_127" d="m159795.96608,47008.87109c0,-19 3,-35 7,-35c4,0 8,16 9,35c1,19 -3,35 -7,35c-5,0 -9,-16 -9,-35z"/>
    <path id="svg_128" d="m159803.96608,46929.87109c0,-14 5,-26 10,-26c6,0 10,9 10,19c0,11 -4,23 -10,26c-6,4 -10,-5 -10,-19z"/>
    <path id="svg_129" d="m157375.96608,46891.87109c1,-38 2,-39 5,-10l4,32l67,-58c134,-118 238,-172 332,-172c41,0 52,4 69,26c12,15 21,36 21,48c0,16 -4,13 -18,-14c-14,-28 -25,-37 -59,-44c-85,-18 -209,48 -361,192c-25,23 -49,42 -54,42c-4,0 -7,-19 -6,-42z"/>
    <path id="svg_130" d="m159020.96608,46900.87109c-3,-8 -1,-20 4,-28c6,-10 9,-7 9,14c0,29 -5,35 -13,14z"/>
    <path id="svg_131" d="m159819.96608,46858.87109c3,-11 7,-38 9,-60c4,-49 26,-117 70,-211c96,-209 289,-395 505,-485c91,-39 141,-41 175,-9c14,13 25,31 25,39c-1,10 -7,5 -16,-11c-8,-16 -20,-28 -27,-29c-7,0 -23,-2 -36,-5c-56,-10 -227,72 -342,164c-108,86 -198,197 -266,327c-21,40 -73,198 -73,226c-1,7 -8,28 -16,44c-8,17 -12,21 -8,10z"/>
    <path id="svg_132" d="m157050.96608,46856.87109c-8,-13 150,-169 184,-182c53,-20 130,15 128,58c0,9 -5,4 -11,-11c-7,-20 -19,-29 -44,-34c-60,-11 -85,2 -170,93c-44,47 -84,82 -87,76z"/>
    <path id="svg_133" d="m160391.96608,46767.87109c28,-50 175,-175 189,-161c2,3 -15,17 -40,31c-43,26 -139,118 -137,133c1,4 -4,9 -10,11c-9,3 -9,-1 -2,-14z"/>
    <path id="svg_134" d="m160591.96608,46548.87109c2,-14 6,-25 8,-25c2,0 4,11 4,25c0,14 -4,25 -9,25c-4,0 -6,-11 -3,-25z"/>
    <path id="svg_135" d="m160513.96608,46551.87109c6,-7 10,-64 10,-127c0,-63 2,-112 5,-109c6,6 18,142 16,183c-1,17 -10,38 -21,48c-11,9 -15,12 -10,5z"/>
    <path id="svg_136" d="m160017.96608,46517.87109c2,-10 8,-20 14,-22c7,-2 10,-7 7,-12c-3,-5 6,-17 20,-28c13,-11 22,-22 19,-24c-8,-9 155,-158 217,-198c34,-22 96,-53 140,-70c88,-34 89,-34 89,-20c0,6 -5,10 -11,10c-6,0 -47,16 -91,35c-139,61 -239,140 -363,286c-16,19 -31,39 -32,43c-3,17 -11,17 -9,0z"/>
    <path id="svg_137" d="m160603.96608,46308.87109c-3,-82 -4,-152 -3,-154c10,-17 13,26 11,155l-3,149l-5,-150z"/>
   </g>
   <g transform="matrix(1.23071, 0, 0, 1.17198, -192046, -53982.9)" fill="#b4403e" id="svg_31">
    <path id="svg_138" d="m159556.96608,49090.87109c-24,-5 -43,-14 -43,-18c0,-5 -7,-6 -15,-3c-8,4 -15,1 -15,-5c0,-6 -7,-11 -15,-11c-48,0 -251,-137 -335,-227l-45,-48l55,51c143,131 289,215 433,250c15,3 30,10 33,15c6,10 4,10 -53,-4z"/>
    <path id="svg_139" d="m159646.96608,49047.87109c-35,-9 -63,-19 -63,-24c0,-4 -9,-6 -20,-3c-11,3 -20,0 -20,-6c0,-5 -6,-8 -12,-6c-7,3 -20,1 -28,-5c-32,-20 0,-18 80,6c46,13 96,24 110,24c15,0 30,3 33,7c4,3 41,5 83,4c45,-1 74,1 70,7c-9,15 -165,12 -233,-4z"/>
    <path id="svg_140" d="m159933.96608,49041.87109c0,-4 9,-8 20,-8c11,0 20,4 20,8c0,4 -9,8 -20,8c-11,0 -20,-4 -20,-8z"/>
    <path id="svg_141" d="m160303.96608,48999.87109c0,-2 28,-23 63,-47c34,-23 81,-59 105,-78c47,-39 168,-182 185,-218c6,-13 14,-23 19,-23c13,0 -66,112 -123,175c-58,62 -249,209 -249,191z"/>
    <path id="svg_142" d="m159738.96608,48977.87109c-11,-2 -45,-9 -75,-15c-152,-31 -314,-123 -431,-247c-89,-93 -136,-162 -176,-262c-60,-148 -66,-193 -67,-542c-1,-174 -4,-320 -8,-324c-5,-4 -72,-9 -150,-10c-79,-2 -146,-3 -150,-4c-8,0 -8,-43 -1,-73c2,-9 8,-15 13,-12c5,3 11,1 14,-4c3,-5 17,-12 30,-15c13,-3 45,-15 70,-26c26,-11 50,-20 54,-21c4,-1 12,-8 17,-14c6,-7 24,-21 40,-31c27,-17 29,-17 16,-1c-7,9 -12,17 -10,18c25,6 109,2 109,-5c0,-6 5,-5 12,2c7,7 19,12 27,12c14,0 14,-1 1,-10c-11,-7 -7,-10 18,-10c19,0 32,5 32,13c0,8 3,8 8,1c9,-13 115,-13 124,1c5,6 11,6 20,-3c16,-16 62,-16 52,0c-5,7 -3,8 7,3c18,-11 61,-16 55,-6c-3,4 26,8 65,7c68,-1 70,-2 67,-26c-2,-14 -9,-24 -15,-22c-7,1 -13,-2 -13,-8c0,-11 11,-13 34,-4c21,8 23,216 1,234c-9,8 -56,10 -144,9c-85,-2 -135,1 -142,8c-8,8 -10,108 -7,334c4,322 4,324 31,398c36,99 69,154 136,225c93,98 198,155 331,180l65,12l1,110c0,60 -1,115 -4,122c-4,12 -18,13 -57,6z"/>
    <path id="svg_143" d="m159870.96608,48976.87109c-4,-3 -7,-59 -7,-123l0,-116l75,-13c116,-19 223,-77 315,-171c114,-115 170,-252 171,-413c1,-188 -55,-318 -199,-466c-93,-94 -150,-168 -191,-249c-33,-64 -42,-92 -31,-92c6,0 10,5 10,11c0,16 26,39 45,39c9,0 25,5 36,10c10,6 19,7 19,2c0,-5 19,-8 43,-6c114,11 126,11 124,0c-1,-6 -6,-14 -12,-18c-6,-5 -6,-8 1,-8c17,0 37,27 29,40c-4,6 -3,9 2,8c11,-3 158,146 203,207c112,150 181,379 167,552c-34,410 -299,716 -690,797c-85,18 -101,19 -110,9z"/>
    <path id="svg_144" d="m159412.96608,48953.87109l-24,-20l28,11c15,7 27,16 27,21c0,12 -5,10 -31,-12z"/>
    <path id="svg_145" d="m159190.96608,48788.87109c-20,-19 -37,-38 -37,-42c0,-4 18,11 40,32c37,36 44,45 37,45c-2,0 -20,-16 -40,-35z"/>
    <path id="svg_146" d="m156489.96608,48805.87109c-3,-5 34,-7 82,-5c124,6 133,10 20,12c-53,0 -99,-3 -102,-7z"/>
    <path id="svg_147" d="m156716.96608,48806.87109c15,-2 39,-2 55,0c15,2 2,4 -28,4c-30,0 -43,-2 -27,-4z"/>
    <path id="svg_148" d="m157842.96608,48779.87109c14,-14 28,-45 32,-69l6,-42l2,38c1,46 -11,72 -42,88c-21,11 -21,11 2,-15z"/>
    <path id="svg_149" d="m158176.96608,48793.87109c-13,-5 -23,-11 -23,-14c0,-5 72,13 79,20c8,7 -34,3 -56,-6z"/>
    <path id="svg_150" d="m158558.96608,48784.87109c11,-5 40,-16 65,-25c67,-23 163,-83 222,-138c28,-26 54,-46 56,-43c8,8 -89,93 -153,133c-45,29 -135,66 -180,75c-22,5 -25,4 -10,-2z"/>
    <path id="svg_151" d="m156425.96608,48756.87109c-7,-2 -17,-14 -23,-26c-11,-21 -10,-20 15,2c14,14 26,26 26,28c0,3 0,3 -18,-4z"/>
    <path id="svg_152" d="m157673.96608,48745.87109c0,-12 108,-14 115,-2c4,6 -16,10 -54,10c-34,0 -61,-4 -61,-8z"/>
    <path id="svg_153" d="m157976.96608,48703.87109c-45,-28 -85,-55 -89,-62c-10,-15 0,-10 94,51c71,46 91,61 79,61c-2,0 -40,-23 -84,-50z"/>
    <path id="svg_154" d="m158213.96608,48736.87109c-30,-8 -60,-19 -66,-24c-7,-5 -23,-12 -35,-14c-13,-3 -25,-9 -27,-15c-2,-6 -9,-7 -14,-4c-7,4 -8,2 -4,-4c5,-8 18,-6 44,6c20,9 38,20 40,24c2,4 10,4 18,1c8,-3 14,-1 14,5c0,6 9,8 20,5c11,-3 20,-1 20,3c0,5 44,10 98,12c116,4 218,-15 309,-57c34,-17 63,-27 63,-23c0,4 4,0 10,-8c5,-8 12,-11 15,-8c10,9 -87,69 -102,63c-7,-2 -13,0 -13,4c0,12 -19,18 -104,36c-89,19 -214,18 -286,-2z"/>
    <path id="svg_155" d="m156575.96608,48665.87109c-79,-9 -211,-247 -242,-436c-35,-218 29,-477 161,-644c60,-77 143,-161 169,-172c16,-7 28,-16 25,-20c-3,-5 9,-19 27,-31l33,-23l-25,28l-25,28l100,-7c202,-13 245,-14 480,-15c226,0 404,6 433,15c7,3 12,-1 11,-8c-1,-6 -1,-21 0,-32c1,-16 3,-17 10,-5c6,8 7,18 5,22c-3,4 -5,298 -4,653c0,517 -2,645 -12,646c-52,2 -233,-3 -237,-7c-3,-3 -4,-270 -3,-595l1,-590l-29,21c-94,67 -189,250 -236,458c-25,113 -26,126 -25,415l2,297l-111,0c-66,0 -111,-4 -111,-10c-5,-41 -4,-77 3,-87c5,-6 5,-14 0,-17c-6,-4 -8,-213 -6,-536c2,-291 0,-530 -4,-530c-20,0 -125,83 -196,155c-86,87 -156,194 -188,285c-29,82 -35,220 -13,305c9,38 26,90 38,115c31,68 110,181 173,249c31,34 54,64 51,67c-7,7 -207,12 -255,6z"/>
    <path id="svg_156" d="m158250.96608,48659.87109c-215,-49 -403,-238 -438,-440c-37,-213 61,-432 246,-551c47,-30 134,-68 145,-64c3,1 15,-3 27,-10c32,-17 158,-22 233,-10c36,6 101,28 145,49c340,162 421,608 158,869c-75,74 -131,109 -225,140c-82,26 -215,34 -291,17zm209,-249c96,-29 181,-113 206,-206c15,-53 5,-159 -21,-208c-95,-187 -361,-224 -508,-71c-79,82 -101,226 -50,323c43,84 95,130 177,158c54,19 140,21 196,4z"/>
    <path id="svg_157" d="m158268.96608,48339.87109c-49,-23 -110,-76 -87,-76c6,0 15,6 19,13c4,6 31,23 58,37c56,27 135,31 197,11c35,-11 109,-81 120,-112c3,-8 9,-11 13,-7c13,12 -35,77 -78,107c-85,57 -161,66 -242,27z"/>
    <path id="svg_158" d="m158346.96608,48285.87109c-13,-2 -23,-7 -23,-12c0,-4 9,-6 20,-3c33,9 88,-6 120,-34c17,-14 33,-23 36,-21c7,8 -70,58 -102,66c-16,4 -39,6 -51,4z"/>
    <path id="svg_159" d="m158129.96608,48187.87109c-4,-15 -2,-32 3,-37c8,-8 11,-5 11,10c0,12 3,28 6,37c3,9 2,16 -4,16c-5,0 -13,-12 -16,-26z"/>
    <path id="svg_160" d="m158207.96608,48105.87109c2,-24 7,-46 10,-49c12,-12 12,3 -1,47l-13,45l4,-43z"/>
    <path id="svg_161" d="m158600.96608,48107.87109c-4,-4 -7,-19 -6,-33l0,-26l10,24c10,26 8,47 -4,35z"/>
    <path id="svg_162" d="m158509.96608,48073.87109c-26,-53 -40,-68 -81,-85c-20,-9 -35,-19 -32,-22c3,-3 23,3 44,13c41,20 98,93 91,115c-3,9 -12,0 -22,-21z"/>
    <path id="svg_163" d="m158233.96608,48040.87109c0,-13 35,-49 62,-63c15,-8 42,-14 60,-13c30,1 30,2 -12,11c-27,6 -58,22 -77,41c-18,17 -33,28 -33,24z"/>
    <path id="svg_164" d="m158542.96608,47983.87109c-13,-10 -19,-19 -12,-20c11,0 43,26 43,36c0,8 -8,4 -31,-16z"/>
    <path id="svg_165" d="m159075.96608,48646.87109c-26,-38 -34,-53 -29,-53c2,0 16,18 31,40c29,45 28,56 -2,13z"/>
    <path id="svg_166" d="m159728.96608,48661.87109c-73,-13 -184,-70 -244,-124c-256,-230 -249,-603 16,-836c127,-111 332,-150 493,-95c92,33 157,75 225,149c161,173 191,419 78,642c-13,26 -55,79 -92,116c-131,131 -296,182 -476,148zm227,-262c54,-26 116,-90 141,-144c29,-66 30,-189 1,-252c-51,-109 -165,-176 -285,-167c-159,11 -269,130 -269,292c0,125 68,230 181,276c57,24 177,22 231,-5z"/>
    <path id="svg_167" d="m159738.96608,48344.87109c-40,-18 -118,-91 -99,-91c6,0 19,10 30,21c27,31 113,69 154,69c80,0 169,-50 191,-107c5,-13 13,-23 19,-23c17,0 11,14 -22,58c-64,83 -183,115 -273,73z"/>
    <path id="svg_168" d="m159948.96608,48219.87109c42,-70 38,-137 -10,-194c-30,-36 -32,-48 -4,-24c20,17 41,56 54,99c8,30 -11,96 -36,125l-21,23l17,-29z"/>
    <path id="svg_169" d="m159616.96608,48209.87109c3,-8 1,-16 -5,-18c-7,-3 -9,-11 -3,-24c7,-18 8,-17 15,6c12,37 11,50 -1,50c-6,0 -9,-6 -6,-14z"/>
    <path id="svg_170" d="m160050.96608,48166.87109c-3,-5 -1,-26 3,-48l8,-40l1,48c1,45 -2,56 -12,40z"/>
    <path id="svg_171" d="m160039.96608,48058.87109c4,-8 1,-15 -6,-15c-6,0 -8,-4 -5,-10c3,-5 1,-10 -5,-10c-6,0 -9,-4 -6,-9c4,-5 0,-11 -6,-14c-7,-2 -10,-8 -6,-12c8,-8 48,53 48,73c0,6 -4,12 -10,12c-5,0 -7,-7 -4,-15z"/>
    <path id="svg_172" d="m159719.96608,48019.87109c8,-21 63,-54 94,-56c44,-4 70,0 70,9c0,5 -9,7 -20,4c-33,-9 -88,6 -120,33c-19,16 -28,20 -24,10z"/>
    <path id="svg_173" d="m159974.96608,47956.87109c-5,-10 -13,-17 -18,-15c-4,2 -9,-2 -11,-8c-3,-9 1,-9 15,-2c26,14 49,42 35,42c-6,0 -15,-8 -21,-17z"/>
    <path id="svg_174" d="m159773.96608,47903.87109c-12,-8 -11,-10 7,-10c12,0 25,5 28,10c8,13 -15,13 -35,0z"/>
    <path id="svg_175" d="m159823.96608,47898.87109c0,-8 6,-15 13,-15c8,0 14,7 14,15c0,8 -6,15 -14,15c-7,0 -13,-7 -13,-15z"/>
    <path id="svg_176" d="m157402.96608,48586.87109c-3,-153 1,-597 6,-601c3,-3 5,144 5,326c0,183 -2,332 -5,332c-3,0 -5,-26 -6,-57z"/>
    <path id="svg_177" d="m157986.96608,48617.87109l-28,-25l33,22c17,13 32,24 32,26c0,8 -11,1 -37,-23z"/>
    <path id="svg_178" d="m158733.96608,48625.87109c0,-5 7,-15 15,-22c8,-7 15,-8 15,-2c0,5 -7,15 -15,22c-8,7 -15,8 -15,2z"/>
    <path id="svg_179" d="m156847.96608,48581.87109l-29,-31l35,26l35,26l-1,-332c-1,-182 2,-343 7,-357c4,-14 8,138 8,338c1,396 2,391 -55,330z"/>
    <path id="svg_180" d="m157246.96608,48558.87109c0,-27 2,-38 4,-22c2,15 2,37 0,50c-2,12 -4,0 -4,-28z"/>
    <path id="svg_181" d="m158913.96608,48548.87109c14,-17 30,-20 30,-4c0,5 -4,7 -10,4c-5,-3 -10,-1 -10,4c0,6 -5,11 -11,11c-8,0 -8,-5 1,-15z"/>
    <path id="svg_182" d="m160713.96608,48562.87109c0,-3 13,-37 28,-75c16,-38 32,-86 36,-106c6,-34 26,-63 26,-39c0,27 -88,243 -90,220z"/>
    <path id="svg_183" d="m156778.96608,48503.87109c-10,-11 -14,-20 -8,-20c5,0 18,9 28,20c10,11 14,20 8,20c-5,0 -18,-9 -28,-20z"/>
    <path id="svg_184" d="m157795.96608,48461.87109c-2,-46 9,-61 24,-36c4,6 3,8 -4,4c-7,-4 -12,9 -15,36l-4,43l-1,-47z"/>
    <path id="svg_185" d="m157246.96608,48453.87109c0,-25 2,-35 4,-22c2,12 2,32 0,45c-2,12 -4,2 -4,-23z"/>
    <path id="svg_186" d="m156717.96608,48421.87109c-4,-7 -14,-23 -22,-35c-8,-13 -10,-23 -6,-23c5,0 19,16 32,35c12,19 18,35 13,35c-6,0 -13,-6 -17,-12z"/>
    <path id="svg_187" d="m156269.96608,48281.87109c-3,-13 -5,-32 -5,-43c1,-11 5,-2 10,19c10,42 6,62 -5,24z"/>
    <path id="svg_188" d="m160723.96608,48244.87109c0,-11 5,-23 10,-26c6,-3 10,3 10,14c0,11 -4,23 -10,26c-5,3 -10,-3 -10,-14z"/>
    <path id="svg_189" d="m160734.96608,48126.87109c-3,-114 -18,-205 -49,-300c-16,-45 -25,-83 -20,-83c4,0 8,2 8,4c0,1 11,34 25,71c43,120 70,336 46,373c-5,9 -9,-16 -10,-65z"/>
    <path id="svg_190" d="m156252.96608,48191.87109c-6,-21 -6,-43 1,-66c8,-23 9,-20 8,21c-2,39 -5,57 -9,45z"/>
    <path id="svg_191" d="m156614.96608,48146.87109c-1,-24 1,-43 3,-43c8,0 12,48 5,66c-5,13 -8,7 -8,-23z"/>
    <path id="svg_192" d="m156249.96608,48041.87109c-4,-20 -4,-43 0,-50c5,-7 10,-22 11,-33c5,-47 10,-65 17,-72c5,-5 5,12 1,37c-4,25 -11,70 -15,100l-6,55l-8,-37z"/>
    <path id="svg_193" d="m156613.96608,48049.87109c0,-14 4,-27 8,-30c5,-3 6,8 4,25c-5,35 -12,38 -12,5z"/>
    <path id="svg_194" d="m156203.96608,47879.87109c0,-15 46,-148 61,-178c29,-56 31,-46 5,15c-13,28 -31,78 -40,110c-9,31 -19,57 -21,57c-3,0 -5,-2 -5,-4z"/>
    <path id="svg_195" d="m157799.96608,47816.87109c-4,-10 -4,-14 0,-11c4,4 29,-21 55,-57c89,-117 205,-194 349,-231c89,-23 248,-23 318,1c28,9 61,15 72,12c13,-3 20,0 20,9c0,18 -13,17 -72,0c-160,-49 -375,-18 -519,75c-58,38 -179,151 -179,168c0,4 -8,18 -19,30c-17,20 -19,20 -25,4z"/>
    <path id="svg_196" d="m159297.96608,47820.87109c-3,-8 -4,-49 -2,-93l3,-79l5,93c5,92 4,104 -6,79z"/>
    <path id="svg_197" d="m158889.96608,47798.87109c-9,-14 -13,-25 -9,-25c4,0 -2,-7 -13,-16c-10,-8 -13,-13 -7,-9c9,4 11,-2 7,-23c-5,-23 -1,-32 20,-45c14,-9 28,-17 31,-17c3,0 5,36 5,80c0,44 -4,80 -9,80c-5,0 -16,-11 -25,-25z"/>
    <path id="svg_198" d="m157796.96608,47713.87109c0,-30 2,-43 4,-27c2,15 2,39 0,55c-2,15 -4,2 -4,-28z"/>
    <path id="svg_199" d="m156883.96608,47724.87109c0,-23 18,-65 21,-51c8,33 4,77 -8,77c-7,0 -13,-11 -13,-26z"/>
    <path id="svg_200" d="m159368.96608,47713.87109c5,-40 20,-56 58,-65c38,-10 34,4 -17,54l-45,44l4,-33z"/>
    <path id="svg_201" d="m160584.96608,47622.87109c-25,-38 -76,-99 -114,-136c-74,-73 -147,-159 -147,-174c0,-5 15,7 33,28c17,21 43,47 56,58c34,28 113,106 133,133c46,58 89,132 86,145c-2,9 -22,-14 -47,-54z"/>
    <path id="svg_202" d="m159603.96608,47502.87109c0,-69 9,-77 12,-11c1,34 5,41 17,38c90,-28 206,-34 301,-18c30,6 56,9 57,8c2,-2 -10,-30 -26,-63c-16,-33 -31,-69 -33,-79c-2,-10 -9,-25 -16,-33c-8,-8 -11,-22 -9,-32c3,-11 1,-22 -4,-25c-11,-7 -12,-24 -1,-24c4,0 18,32 31,71c13,39 38,101 57,137c19,36 32,67 30,69c-2,2 -23,-1 -47,-7c-84,-23 -266,-10 -351,25c-16,6 -18,0 -18,-56z"/>
    <path id="svg_203" d="m157796.96608,47503.87109c-1,-22 2,-40 7,-40c9,0 8,65 -1,74c-3,3 -5,-13 -6,-34z"/>
    <path id="svg_204" d="m156519.96608,47445.87109c3,-10 31,-42 62,-70c31,-27 134,-117 227,-199c94,-83 227,-210 295,-284c69,-74 136,-140 149,-147c19,-10 15,-3 -15,31c-97,109 -401,403 -514,498c-69,57 -144,124 -167,148c-28,29 -40,37 -37,23z"/>
    <path id="svg_205" d="m158619.96608,47423.87109c6,-6 36,-17 67,-25c112,-29 231,-108 290,-191c35,-50 57,-60 30,-13c-27,47 -141,148 -203,179c-84,42 -211,77 -184,50z"/>
    <path id="svg_206" d="m160451.96608,47352.87109l-33,-31l38,27c20,15 37,29 37,31c0,10 -12,2 -42,-27z"/>
    <path id="svg_207" d="m157228.96608,47345.87109c-3,-8 -3,-17 0,-20c3,-3 5,0 5,6c0,7 15,12 37,12c42,0 36,15 -7,16c-17,0 -32,-6 -35,-14z"/>
    <path id="svg_208" d="m158973.96608,47328.87109c13,-14 28,-25 33,-25c6,0 0,11 -13,25c-13,14 -28,25 -33,25c-6,0 0,-11 13,-25z"/>
    <path id="svg_209" d="m159684.96608,47348.87109c-2,-5 -3,-28 -4,-51c-3,-48 -29,-92 -60,-99c-12,-3 -44,-6 -72,-8c-42,-3 -39,-4 18,-5c60,-2 71,1 92,22c26,26 39,76 32,122c-2,16 -5,25 -6,19z"/>
    <path id="svg_210" d="m160247.96608,47336.87109c-3,-10 -12,-31 -21,-48c-8,-16 -17,-43 -19,-60c-2,-16 -1,-23 3,-15c3,8 18,43 34,78c15,34 23,62 18,62c-5,0 -12,-8 -15,-17z"/>
    <path id="svg_211" d="m156753.96608,47336.87109c0,-13 29,-38 35,-31c3,3 -4,13 -15,23c-11,10 -20,13 -20,8z"/>
    <path id="svg_212" d="m159230.96608,47322.87109c4,-14 8,-17 13,-9c4,7 27,12 50,12c57,-1 41,11 -19,14c-45,3 -48,1 -44,-17z"/>
    <path id="svg_213" d="m159840.96608,47326.87109c-13,-46 -17,-77 -9,-63c10,17 24,80 17,80c-2,0 -6,-8 -8,-17z"/>
    <path id="svg_214" d="m159987.96608,47307.87109c-4,-10 -9,-22 -11,-26c-2,-5 0,-8 6,-8c11,0 26,39 17,47c-3,3 -9,-3 -12,-13z"/>
    <path id="svg_215" d="m156822.96608,47269.87109c14,-14 26,-24 29,-22c7,8 -8,25 -31,37c-21,11 -21,10 2,-15z"/>
    <path id="svg_216" d="m157223.96608,47246.87109c0,-20 3,-33 7,-29c11,10 12,66 2,66c-5,0 -9,-16 -9,-37z"/>
    <path id="svg_217" d="m157723.96608,47238.87109c0,-19 2,-35 4,-35c2,0 6,16 8,35c2,19 0,35 -4,35c-4,0 -8,-16 -8,-35z"/>
    <path id="svg_218" d="m159223.96608,47236.87109c0,-20 3,-33 8,-29c4,4 7,21 7,37c0,16 -3,29 -7,29c-5,0 -8,-16 -8,-37z"/>
    <path id="svg_219" d="m159309.96608,47261.87109c-11,-32 -11,-88 -2,-85c6,2 10,18 9,35l-2,32l118,0c122,0 184,7 176,20c-2,4 -70,8 -150,9c-111,1 -146,-1 -149,-11z"/>
    <path id="svg_220" d="m159063.96608,47227.87109c0,-9 40,-74 46,-74c2,0 -6,18 -17,40c-20,38 -29,48 -29,34z"/>
    <path id="svg_221" d="m156913.96608,47188.87109c13,-14 26,-23 28,-20c7,7 -29,45 -41,45c-6,0 0,-11 13,-25z"/>
    <path id="svg_222" d="m159879.96608,47197.87109c-4,-9 -4,-32 0,-50c3,-19 2,-34 -3,-34c-10,0 -8,-141 4,-214c6,-34 8,7 9,133c0,99 -1,181 -2,181c-1,0 -5,-7 -8,-16z"/>
    <path id="svg_223" d="m159960.96608,47207.87109c-4,-4 -7,-17 -7,-28c1,-19 1,-20 11,-3c11,19 8,43 -4,31z"/>
    <path id="svg_224" d="m159809.96608,47178.87109c-3,-9 -6,-31 -5,-48c1,-28 2,-26 10,12c9,46 6,65 -5,36z"/>
    <path id="svg_225" d="m157234.96608,47178.87109c-7,-22 -6,-293 2,-286c4,4 6,72 4,152c-1,79 -4,140 -6,134z"/>
    <path id="svg_226" d="m159232.96608,47171.87109c-2,-7 -2,-62 2,-123l5,-110l2,123c2,113 -1,141 -9,110z"/>
    <path id="svg_227" d="m157723.96608,47146.87109c0,-10 5,-25 10,-33c7,-11 10,-7 10,18c0,17 -4,32 -10,32c-5,0 -10,-8 -10,-17z"/>
    <path id="svg_228" d="m157299.96608,47138.87109c-3,-8 1,-18 8,-22c7,-5 47,-49 88,-98c41,-50 97,-110 124,-134c59,-53 153,-115 161,-107c4,3 4,7 2,9c-2,2 -33,24 -69,49c-83,59 -175,150 -246,244c-30,41 -57,74 -58,74c-2,0 -6,-7 -10,-15z"/>
    <path id="svg_229" d="m159013.96608,47149.87109c0,-3 7,-12 16,-20c9,-9 17,-22 18,-29c1,-6 5,-17 8,-23c4,-6 14,-51 23,-100c23,-135 12,-124 120,-124c65,0 94,4 98,13c3,9 -18,11 -93,9l-97,-3l-12,86c-12,88 -51,195 -70,195c-6,0 -11,-2 -11,-4z"/>
    <path id="svg_230" d="m160328.96608,47132.87109c-8,-35 -9,-56 -5,-129c3,-58 4,-54 10,40c6,108 5,130 -5,89z"/>
    <path id="svg_231" d="m159943.96608,47111.87109c0,-36 4,-35 14,5c4,16 2,27 -4,27c-5,0 -10,-14 -10,-32z"/>
    <path id="svg_232" d="m157296.96608,47068.87109c0,-22 2,-30 4,-17c2,12 2,30 0,40c-3,9 -5,-1 -4,-23z"/>
    <path id="svg_233" d="m157796.96608,47068.87109c0,-22 2,-30 4,-17c2,12 2,30 0,40c-3,9 -5,-1 -4,-23z"/>
    <path id="svg_234" d="m159297.96608,47092.87109c-3,-6 -1,-16 5,-22c8,-8 11,-5 11,11c0,24 -5,28 -16,11z"/>
    <path id="svg_235" d="m157083.96608,47028.87109c30,-30 57,-55 59,-55c3,0 -19,25 -49,55c-30,30 -57,55 -59,55c-3,0 19,-25 49,-55z"/>
    <path id="svg_236" d="m157736.96608,46983.87109c0,-30 2,-43 4,-27c2,15 2,39 0,55c-2,15 -4,2 -4,-28z"/>
    <path id="svg_237" d="m159944.96608,46934.87109c-1,-24 2,-32 9,-25c7,7 7,19 1,35c-9,23 -10,22 -10,-10z"/>
    <path id="svg_238" d="m159803.96608,46928.87109c0,-14 4,-25 9,-25c4,0 6,11 3,25c-2,14 -6,25 -8,25c-2,0 -4,-11 -4,-25z"/>
    <path id="svg_239" d="m159176.96608,46936.87109c9,-2 25,-2 35,0c9,3 1,5 -18,5c-19,0 -27,-2 -17,-5z"/>
    <path id="svg_240" d="m160334.96608,46924.87109c-1,-24 22,-91 31,-91c5,0 6,5 2,11c-4,7 -13,30 -20,53c-7,23 -13,35 -13,27z"/>
    <path id="svg_241" d="m157294.96608,46806.87109c-1,-53 1,-94 4,-91c8,8 11,179 4,184c-4,2 -8,-39 -8,-93z"/>
    <path id="svg_242" d="m157729.96608,46876.87109c-4,-9 -2,-21 4,-27c7,-7 10,-2 10,17c0,31 -5,34 -14,10z"/>
    <path id="svg_243" d="m157073.96608,46818.87109c18,-19 36,-32 39,-30c6,7 -50,65 -63,65c-5,0 5,-16 24,-35z"/>
    <path id="svg_244" d="m159889.96608,46835.87109c-3,-6 -2,-13 3,-16c5,-3 7,-15 4,-26c-3,-12 0,-20 7,-20c7,0 10,-7 6,-15c-3,-8 -1,-15 5,-15c7,0 8,12 3,33c-11,52 -20,72 -28,59z"/>
    <path id="svg_245" d="m159823.96608,46791.87109c1,-27 80,-231 87,-224c3,2 -11,45 -31,94c-20,49 -36,97 -36,105c0,9 -4,19 -10,22c-5,3 -10,5 -10,3z"/>
    <path id="svg_246" d="m159979.96608,46773.87109c3,-14 11,-32 16,-40c6,-10 7,-7 2,10c-3,14 -11,32 -16,40c-6,10 -7,7 -2,-10z"/>
    <path id="svg_247" d="m157784.96608,46754.87109c-10,-6 -10,-10 -1,-16c13,-8 24,-1 19,14c-3,6 -10,7 -18,2z"/>
    <path id="svg_248" d="m157845.96608,46722.87109c-12,-15 -35,-30 -50,-32c-21,-4 -19,-4 7,-3c24,1 40,9 54,28c28,37 18,43 -11,7z"/>
    <path id="svg_249" d="m160448.96608,46703.87109c27,-27 51,-50 54,-50c8,0 -84,98 -94,99c-5,1 13,-21 40,-49z"/>
    <path id="svg_250" d="m159919.96608,46724.87109c-4,-6 -2,-11 4,-11c7,0 10,-6 7,-13c-2,-6 2,-18 10,-26c13,-12 14,-11 8,10c-12,41 -21,53 -29,40z"/>
    <path id="svg_251" d="m160398.96608,46643.87109c21,-22 41,-40 44,-40c3,0 -13,18 -34,40c-21,22 -41,40 -44,40c-3,0 13,-18 34,-40z"/>
    <path id="svg_252" d="m159957.96608,46638.87109c4,-11 8,-24 9,-30c1,-5 6,-14 10,-20c4,-5 14,-19 23,-30c8,-11 3,5 -12,35c-27,57 -43,80 -30,45z"/>
    <path id="svg_253" d="m160315.96608,46633.87109c7,-11 19,-22 28,-25c8,-4 4,5 -9,19c-29,31 -36,33 -19,6z"/>
    <path id="svg_254" d="m160538.96608,46629.87109c17,-14 35,-25 40,-25c11,0 -20,25 -50,41c-11,5 -6,-2 10,-16z"/>
    <path id="svg_255" d="m160378.96608,46569.87109c9,-13 24,-27 33,-31c10,-4 5,6 -12,24c-36,37 -42,39 -21,7z"/>
    <path id="svg_256" d="m160511.96608,46553.87109c8,-9 12,-51 12,-129c0,-63 3,-112 6,-109c3,3 8,53 11,110c5,99 4,104 -19,123c-12,11 -17,13 -10,5z"/>
    <path id="svg_257" d="m160017.96608,46517.87109c2,-10 8,-20 14,-22c7,-2 10,-7 7,-12c-3,-5 6,-17 20,-28c13,-11 22,-22 19,-24c-10,-10 169,-169 234,-207c55,-33 188,-91 207,-91c3,0 5,5 5,10c0,6 -5,10 -11,10c-6,0 -47,16 -91,35c-139,61 -239,140 -363,286c-16,19 -31,39 -32,43c-3,17 -11,17 -9,0z"/>
   </g>
   <g transform="matrix(1.23071, 0, 0, 1.17198, -192046, -53982.9)" fill="#584c98" id="svg_30">
    <path id="svg_258" d="m159773.96608,49124.87109c-18,-6 -6,-9 43,-9c37,0 76,-4 87,-7c11,-4 20,-2 20,4c0,6 -19,11 -42,11c-24,0 -52,2 -63,4c-11,3 -31,1 -45,-3z"/>
    <path id="svg_259" d="m159671.96608,49116.87109c-27,-2 -48,-9 -48,-15c0,-6 10,-8 23,-4c12,3 39,6 60,6c20,0 37,5 37,10c0,6 -6,9 -12,8c-7,-1 -34,-3 -60,-5z"/>
    <path id="svg_260" d="m159938.96608,49113.87109c-5,-8 104,-25 111,-17c2,2 -21,8 -51,14c-31,5 -58,6 -60,3z"/>
    <path id="svg_261" d="m159556.96608,49090.87109c-24,-5 -43,-14 -43,-18c0,-5 -7,-6 -15,-3c-8,4 -15,1 -15,-5c0,-6 -8,-11 -19,-11c-10,0 -24,-7 -31,-15c-8,-10 7,-7 49,10c33,13 74,26 91,30c16,4 32,11 35,16c7,10 5,10 -52,-4z"/>
    <path id="svg_262" d="m160113.96608,49073.87109c76,-29 103,-34 53,-10c-23,11 -57,23 -75,26c-23,4 -17,-1 22,-16z"/>
    <path id="svg_263" d="m159645.96608,49046.87109c-89,-21 -70,-28 25,-9c43,8 101,17 128,19c38,3 34,4 -20,4c-38,1 -98,-6 -133,-14z"/>
    <path id="svg_264" d="m159503.96608,49003.87109c-8,-5 -12,-11 -9,-14c3,-3 14,1 25,9c21,16 8,20 -16,5z"/>
    <path id="svg_265" d="m160308.96608,48995.87109c6,-6 38,-30 72,-54c34,-24 81,-58 105,-76l43,-34l-35,32c-55,50 -217,165 -185,132z"/>
    <path id="svg_266" d="m159308.96608,48971.87109c-37,-21 -150,-115 -185,-154c-25,-28 -19,-25 20,12c52,48 136,115 176,141c24,15 15,16 -11,1z"/>
    <path id="svg_267" d="m159688.96608,48963.87109c-309,-61 -544,-268 -648,-570c-40,-116 -45,-172 -46,-499c-1,-167 -4,-308 -7,-312c-3,-5 -72,-9 -155,-9l-149,0l0,-39c0,-39 1,-40 53,-56c64,-21 119,-50 172,-90c22,-16 34,-22 26,-12c-7,9 -12,17 -10,18c25,6 109,2 109,-5c0,-6 5,-5 12,2c7,7 19,12 27,12c14,0 14,-1 1,-10c-11,-7 -7,-10 18,-10c19,0 32,5 32,13c0,8 3,8 8,1c9,-13 115,-13 124,1c5,6 11,6 20,-3c16,-16 62,-16 52,0c-5,7 -3,8 7,3c18,-11 61,-16 55,-6c-3,4 26,8 65,7c68,-1 70,-2 67,-26c-2,-14 -9,-24 -15,-22c-7,1 -13,-2 -13,-8c0,-14 26,-12 36,3c5,6 7,59 4,117l-5,105l-147,3l-148,3l-1,52c-4,224 3,592 12,637c6,30 29,93 51,139c74,155 241,290 398,322c30,6 65,13 78,15c21,4 22,8 22,119l0,115l-32,-1c-18,-1 -51,-5 -73,-9z"/>
    <path id="svg_268" d="m159863.96608,48860.87109l0,-114l83,-16c233,-46 423,-233 472,-464c49,-229 -32,-460 -218,-623c-78,-69 -207,-271 -193,-303c3,-8 5,-8 5,1c1,19 27,42 46,42c9,0 25,5 36,10c10,6 19,7 19,2c0,-5 19,-8 43,-6c108,10 126,10 121,2c-3,-4 0,-8 5,-8c6,0 11,5 11,11c0,6 44,54 97,107c139,139 212,265 258,442c21,79 21,263 1,360c-56,265 -269,521 -514,614c-75,29 -190,56 -239,56l-33,0l0,-113z"/>
    <path id="svg_269" d="m156906.96608,48806.87109c9,-2 25,-2 35,0c9,3 1,5 -18,5c-19,0 -27,-2 -17,-5z"/>
    <path id="svg_270" d="m157146.96608,48806.87109c129,-4 162,-15 173,-60c5,-16 10,-21 17,-14c12,12 -29,67 -58,75c-11,3 -72,5 -135,4l-115,-2l118,-3z"/>
    <path id="svg_271" d="m157366.96608,48787.87109l-28,-26l31,21c29,19 49,21 240,24l209,2l-212,3l-212,2l-28,-26z"/>
    <path id="svg_272" d="m157844.96608,48777.87109c13,-17 26,-30 28,-27c3,2 -8,16 -24,31l-28,27l24,-31z"/>
    <path id="svg_273" d="m160563.96608,48778.87109c13,-14 25,-23 28,-21c4,5 -35,46 -45,46c-3,0 4,-11 17,-25z"/>
    <path id="svg_274" d="m158558.96608,48783.87109c11,-4 40,-15 65,-24c67,-23 163,-83 222,-138c28,-26 53,-46 55,-44c2,2 -10,16 -28,32c-17,16 -38,36 -48,45c-31,31 -151,99 -211,119c-59,20 -93,26 -55,10z"/>
    <path id="svg_275" d="m159058.96608,48746.87109l-18,-28l27,24c28,26 31,31 17,31c-5,0 -17,-12 -26,-27z"/>
    <path id="svg_276" d="m156415.96608,48743.87109c-12,-12 -22,-24 -22,-27c0,-4 11,4 25,17c23,22 29,30 22,30c-2,0 -13,-9 -25,-20z"/>
    <path id="svg_277" d="m157673.96608,48745.87109c0,-4 21,-6 48,-4c75,5 82,10 15,11c-35,0 -63,-2 -63,-7z"/>
    <path id="svg_278" d="m158214.96608,48736.87109c-50,-13 -109,-43 -85,-43c5,0 15,5 22,12c7,7 12,8 12,4c0,-5 6,-3 13,3c22,17 166,33 237,26c36,-3 87,-13 114,-21c27,-8 57,-14 65,-14c33,1 -14,19 -90,34c-91,20 -216,19 -288,-1z"/>
    <path id="svg_279" d="m157961.96608,48691.87109c-43,-29 -76,-53 -74,-55c1,-2 41,22 87,52c46,30 79,55 74,54c-6,0 -45,-23 -87,-51z"/>
    <path id="svg_280" d="m158614.96608,48700.87109c21,-17 109,-66 105,-58c-7,10 -91,61 -102,61c-4,0 -5,-1 -3,-3z"/>
    <path id="svg_281" d="m156516.96608,48626.87109c-201,-259 -242,-596 -108,-888c40,-88 134,-214 211,-283c32,-30 72,-66 88,-80c25,-22 26,-23 11,-4l-20,24l110,-7c184,-12 215,-13 355,-14c78,-1 129,-5 122,-10c-11,-7 -10,-9 3,-14c9,-4 14,-3 10,3c-10,16 9,18 213,24c106,3 198,8 204,12c7,5 9,2 6,-8c-4,-8 -2,-21 2,-28c7,-12 8,301 1,1168l-1,142l-119,0l-119,0l0,-137c1,-611 -3,-1053 -9,-1053c-5,0 -28,19 -53,43c-85,79 -145,193 -189,362c-50,191 -51,204 -51,501l0,284l-105,0l-104,0l-1,-592c0,-325 -2,-594 -5,-596c-9,-10 -144,96 -210,165c-211,218 -264,497 -142,739c33,65 136,202 182,243c19,17 35,33 35,36c0,3 -65,5 -144,5l-144,0l-29,-37z"/>
    <path id="svg_282" d="m158233.96608,48647.87109c-131,-32 -270,-132 -345,-248c-63,-99 -92,-252 -71,-376c5,-25 25,-83 47,-128c138,-297 525,-404 805,-222c269,176 330,528 136,782c-124,163 -362,243 -572,192zm274,-248c190,-93 231,-346 79,-487c-69,-64 -123,-84 -223,-84c-101,0 -156,21 -217,82c-55,55 -83,118 -90,201c-5,61 -3,76 21,128c59,129 170,198 308,190c47,-2 84,-11 122,-30z"/>
    <path id="svg_283" d="m158257.96608,48329.87109c-51,-26 -97,-66 -76,-66c6,0 15,6 19,13c4,6 31,23 58,37c56,27 135,31 197,11c36,-12 118,-90 118,-112c0,-7 3,-9 6,-6c12,12 -46,84 -89,113c-33,22 -56,28 -112,31c-60,4 -77,1 -121,-21z"/>
    <path id="svg_284" d="m158346.96608,48285.87109c-36,-6 -27,-18 10,-14c34,4 83,-14 125,-44c12,-9 22,-14 22,-12c0,3 -17,17 -38,32c-44,30 -86,44 -119,38z"/>
    <path id="svg_285" d="m158278.96608,48262.87109c-23,-11 -67,-70 -59,-78c3,-3 10,3 16,13c12,22 37,46 64,63c23,14 7,16 -21,2z"/>
    <path id="svg_286" d="m158139.96608,48198.87109c-3,-9 -6,-26 -5,-38c1,-14 4,-9 9,13c9,37 7,52 -4,25z"/>
    <path id="svg_287" d="m158509.96608,48178.87109c4,-16 11,-34 16,-40c7,-7 8,-1 3,15c-12,40 -26,59 -19,25z"/>
    <path id="svg_288" d="m158204.96608,48117.87109c0,-16 4,-38 9,-49c6,-13 7,-5 3,25c-7,53 -13,66 -12,24z"/>
    <path id="svg_289" d="m158487.96608,48022.87109c-3,-6 -27,-20 -51,-31c-25,-11 -43,-22 -40,-24c8,-9 71,22 91,45c11,11 16,21 13,21c-3,0 -9,-5 -13,-11z"/>
    <path id="svg_290" d="m158258.96608,48003.87109c3,-5 16,-15 28,-21c22,-12 22,-12 3,10c-19,21 -43,30 -31,11z"/>
    <path id="svg_291" d="m159686.96608,48644.87109c-176,-51 -334,-223 -372,-409c-75,-363 241,-702 599,-643c112,19 192,62 281,150c84,83 127,156 154,262c34,127 3,297 -74,418c-69,107 -203,203 -321,230c-68,16 -197,12 -267,-8zm249,-231c59,-22 130,-85 158,-139c102,-203 -40,-446 -259,-445c-90,0 -136,18 -198,77c-111,105 -131,277 -47,399c77,110 220,155 346,108z"/>
    <path id="svg_292" d="m159778.96608,48352.87109c-47,-11 -93,-41 -119,-78l-19,-26l29,27c89,82 217,89 300,16c20,-18 40,-43 45,-56c5,-14 12,-22 16,-19c7,8 -22,53 -56,85c-49,46 -128,67 -196,51z"/>
    <path id="svg_293" d="m159803.96608,48283.87109c-12,-8 -11,-10 8,-10c12,0 22,5 22,10c0,13 -11,13 -30,0z"/>
    <path id="svg_294" d="m159729.96608,48240.87109c-25,-24 -46,-52 -45,-63c0,-14 5,-10 14,12c13,30 51,67 78,77c7,2 9,7 5,11c-3,4 -27,-12 -52,-37z"/>
    <path id="svg_295" d="m159956.96608,48200.87109c12,-24 23,-40 25,-36c4,10 -25,66 -38,74c-5,3 0,-14 13,-38z"/>
    <path id="svg_296" d="m159618.96608,48193.87109c-4,-17 -5,-34 -2,-36c2,-3 7,10 11,27c8,42 0,50 -9,9z"/>
    <path id="svg_297" d="m159718.96608,48021.87109c11,-28 71,-59 115,-60c23,0 44,2 47,6c4,3 -11,6 -33,7c-61,1 -74,6 -106,36c-19,18 -27,22 -23,11z"/>
    <path id="svg_298" d="m156872.96608,48596.87109c-9,-11 -9,-14 -2,-10c9,6 13,-19 16,-100l3,-108l1,118c0,64 0,117 -2,117c-1,0 -9,-8 -16,-17z"/>
    <path id="svg_299" d="m160744.96608,48481.87109c12,-29 26,-71 31,-93c9,-39 28,-71 28,-48c0,20 -61,183 -71,189c-5,3 0,-19 12,-48z"/>
    <path id="svg_300" d="m156233.96608,48409.87109c-15,-41 -10,-56 6,-17c8,18 13,36 10,39c-3,2 -10,-7 -16,-22z"/>
    <path id="svg_301" d="m160793.96608,48304.87109c0,-11 5,-23 10,-26c6,-3 10,3 10,14c0,11 -4,23 -10,26c-5,3 -10,-3 -10,-14z"/>
    <path id="svg_302" d="m156199.96608,48277.87109c-4,-14 -5,-28 -3,-31c3,-2 8,8 11,23c4,14 5,28 3,31c-3,2 -8,-8 -11,-23z"/>
    <path id="svg_303" d="m156885.96608,48173.87109c-1,-58 2,-98 7,-90c4,8 5,56 1,105l-7,90l-1,-105z"/>
    <path id="svg_304" d="m160803.96608,48241.87109c0,-15 5,-30 10,-33c13,-8 13,25 0,45c-8,12 -10,9 -10,-12z"/>
    <path id="svg_305" d="m156183.96608,48176.87109c0,-21 -3,-49 -7,-63c-3,-14 -2,-21 3,-17c11,10 22,117 12,117c-4,0 -8,-17 -8,-37z"/>
    <path id="svg_306" d="m160746.96608,48133.87109c0,-30 2,-43 4,-27c2,15 2,39 0,55c-2,15 -4,2 -4,-28z"/>
    <path id="svg_307" d="m160816.96608,48103.87109c0,-25 2,-35 4,-22c2,12 2,32 0,45c-2,12 -4,2 -4,-23z"/>
    <path id="svg_308" d="m156173.96608,48062.87109c0,-45 21,-154 32,-164c7,-7 8,-1 4,20c-10,47 -15,77 -20,119c-6,45 -16,61 -16,25z"/>
    <path id="svg_309" d="m160733.96608,48001.87109c-6,-40 -25,-113 -41,-162c-16,-49 -27,-91 -24,-94c3,-3 5,-3 5,0c0,3 11,36 25,74c26,71 61,241 52,250c-3,3 -10,-28 -17,-68z"/>
    <path id="svg_310" d="m160796.96608,47963.87109c-13,-75 -29,-146 -38,-175c-6,-16 -5,-17 4,-5c15,21 53,192 49,221c-2,14 -8,-3 -15,-41z"/>
    <path id="svg_311" d="m156206.96608,47868.87109c21,-76 42,-135 47,-135c7,0 -37,140 -46,149c-4,3 -4,-3 -1,-14z"/>
    <path id="svg_312" d="m157803.96608,47826.87109c0,-6 9,-21 21,-34l20,-24l-17,30c-24,39 -24,40 -24,28z"/>
    <path id="svg_313" d="m158896.96608,47793.87109c-36,-56 -40,-90 -12,-111c33,-24 41,-7 37,78l-3,68l-22,-35z"/>
    <path id="svg_314" d="m157873.96608,47725.87109c71,-94 197,-174 326,-207c75,-19 193,-26 254,-14c94,17 150,33 150,42c0,5 -6,7 -14,4c-29,-11 -102,-30 -126,-33c-229,-25 -422,41 -569,195c-46,48 -49,50 -21,13z"/>
    <path id="svg_315" d="m156884.96608,47723.87109c0,-29 1,-32 10,-17c7,11 7,23 0,35c-9,14 -10,11 -10,-18z"/>
    <path id="svg_316" d="m159368.96608,47701.87109c10,-32 25,-46 60,-54l30,-7l-40,42c-44,46 -60,52 -50,19z"/>
    <path id="svg_317" d="m160693.96608,47653.87109c-11,-21 -20,-43 -20,-47c0,-10 34,45 43,70c12,31 -2,18 -23,-23z"/>
    <path id="svg_318" d="m160594.96608,47627.87109c-19,-32 -72,-97 -120,-144c-48,-47 -99,-103 -115,-125l-29,-40l49,46c91,86 149,144 166,167c44,56 90,132 86,143c-2,7 -19,-14 -37,-47z"/>
    <path id="svg_319" d="m157903.96608,47597.87109c0,-5 21,-23 48,-40c49,-32 101,-61 92,-51c-10,11 -81,57 -87,57c-4,0 -17,10 -30,22c-13,12 -23,17 -23,12z"/>
    <path id="svg_320" d="m156344.96608,47559.87109c12,-20 23,-36 25,-36c7,0 -25,58 -36,65c-5,3 -1,-10 11,-29z"/>
    <path id="svg_321" d="m157877.96608,47483.87109c0,-52 1,-74 3,-47c2,26 2,68 0,95c-2,26 -3,4 -3,-48z"/>
    <path id="svg_322" d="m159603.96608,47496.87109c0,-64 9,-68 12,-5c1,34 5,41 17,38c69,-21 167,-32 241,-26c19,2 -10,6 -65,11c-55,4 -120,15 -144,23c-24,9 -47,16 -52,16c-5,0 -9,-25 -9,-57z"/>
    <path id="svg_323" d="m159968.96608,47527.87109c-36,-13 -37,-14 -7,-9c31,4 43,-7 22,-20c-5,-3 -10,-12 -10,-18c0,-12 49,42 50,56c0,9 -6,8 -55,-9z"/>
    <path id="svg_324" d="m160608.96608,47523.87109c-10,-11 -13,-20 -7,-20c6,0 16,9 22,20c6,11 9,20 7,20c-2,0 -12,-9 -22,-20z"/>
    <path id="svg_325" d="m159679.96608,47456.87109c-14,-14 -2,-18 62,-20c66,-1 66,-1 18,7c-26,5 -54,11 -61,14c-7,2 -16,2 -19,-1z"/>
    <path id="svg_326" d="m158535.96608,47422.87109c6,-16 12,-28 14,-26c5,5 -13,57 -20,57c-3,0 0,-14 6,-31z"/>
    <path id="svg_327" d="m158308.96608,47432.87109c26,-10 95,-10 120,1c13,5 -9,7 -60,7c-48,0 -72,-3 -60,-8z"/>
    <path id="svg_328" d="m159953.96608,47441.87109c0,-3 -7,-22 -15,-42c-8,-20 -13,-36 -10,-36c8,0 36,73 30,78c-3,3 -5,3 -5,0z"/>
    <path id="svg_329" d="m158620.96608,47422.87109c5,-5 35,-16 68,-24c112,-30 244,-122 309,-215c14,-22 14,-20 -1,8c-27,51 -136,148 -203,182c-59,30 -192,68 -173,49z"/>
    <path id="svg_330" d="m156604.96608,47354.87109c24,-22 45,-38 47,-36c5,5 -71,74 -82,75c-5,0 10,-18 35,-39z"/>
    <path id="svg_331" d="m157877.96608,47258.87109c0,-71 1,-99 3,-62c2,37 2,96 0,130c-2,34 -3,4 -3,-68z"/>
    <path id="svg_332" d="m160442.96608,47346.87109l-24,-26l27,19c15,10 28,22 28,27c0,12 -5,8 -31,-20z"/>
    <path id="svg_333" d="m158648.96608,47343.87109c3,-5 12,-10 18,-10c21,0 151,-66 175,-89c12,-12 22,-18 22,-13c0,10 -64,62 -76,62c-4,0 -15,6 -23,13c-15,13 -98,47 -114,47c-5,0 -5,-4 -2,-10z"/>
    <path id="svg_334" d="m159908.96608,47333.87109c-4,-12 -5,-24 -2,-27c3,-2 8,5 12,17c4,12 5,24 2,27c-3,2 -8,-5 -12,-17z"/>
    <path id="svg_335" d="m159837.96608,47319.87109c-3,-8 -4,-23 -2,-33c3,-11 6,-6 9,15c6,34 2,42 -7,18z"/>
    <path id="svg_336" d="m156568.96608,47292.87109c22,-19 42,-36 45,-39c3,-3 19,-16 35,-29c17,-12 49,-41 73,-63c23,-22 45,-38 48,-36c5,6 -209,191 -228,197c-7,2 6,-11 27,-30z"/>
    <path id="svg_337" d="m159988.96608,47303.87109c-4,-12 -5,-24 -2,-27c3,-2 8,5 12,17c4,12 5,24 2,27c-3,2 -8,-5 -12,-17z"/>
    <path id="svg_338" d="m156663.96608,47310.87109c0,-3 71,-68 158,-145c87,-77 214,-200 282,-273c69,-74 129,-136 135,-138c12,-4 -37,50 -185,202c-137,141 -390,371 -390,354z"/>
    <path id="svg_339" d="m159303.96608,47217.87109c0,-28 4,-43 10,-39c6,3 8,19 5,36l-5,29l127,1c71,1 139,5 153,9c15,5 -38,8 -132,9l-158,1l0,-46z"/>
    <path id="svg_340" d="m159668.96608,47244.87109c-10,-33 -36,-46 -104,-52l-66,-6l68,-1c62,-2 70,0 92,24c14,15 25,33 25,40c0,20 -8,17 -15,-5z"/>
    <path id="svg_341" d="m158918.96608,47166.87109c45,-70 65,-97 65,-89c0,4 -13,28 -30,53c-16,24 -30,48 -30,54c0,5 -5,9 -11,9c-7,0 -4,-11 6,-27z"/>
    <path id="svg_342" d="m159386.96608,47186.87109c-7,-2 -12,-19 -12,-36l1,-32l7,29c3,16 15,33 26,37c12,4 14,8 5,8c-8,-1 -21,-3 -27,-6z"/>
    <path id="svg_343" d="m159809.96608,47171.87109c-3,-13 -5,-34 -5,-48c1,-15 5,-7 10,19c9,47 6,68 -5,29z"/>
    <path id="svg_344" d="m160330.96608,47136.87109c-14,-49 -15,-69 -8,-81c5,-9 10,6 14,40c5,55 3,73 -6,41z"/>
    <path id="svg_345" d="m157303.96608,47129.87109c0,-8 4,-16 8,-18c5,-1 43,-44 84,-93c41,-50 97,-110 124,-134c53,-47 153,-115 160,-109c2,3 -17,19 -44,36c-98,64 -209,172 -275,269c-42,63 -57,75 -57,49z"/>
    <path id="svg_346" d="m156908.96608,46990.87109c71,-69 131,-124 133,-122c4,4 -213,215 -240,233c-13,8 35,-42 107,-111z"/>
    <path id="svg_347" d="m157877.96608,46898.87109c0,-49 1,-71 3,-48c2,23 2,64 0,90c-2,26 -3,8 -3,-42z"/>
    <path id="svg_348" d="m159376.96608,46908.87109c0,-33 2,-45 4,-27c2,18 2,45 0,60c-2,15 -4,0 -4,-33z"/>
    <path id="svg_349" d="m157375.96608,46891.87109c1,-37 2,-38 5,-11l4,33l73,-64c41,-35 84,-70 97,-76c28,-14 21,-8 -41,42c-25,20 -64,54 -88,77c-24,22 -45,41 -47,41c-3,0 -4,-19 -3,-42z"/>
    <path id="svg_350" d="m159103.96608,46862.87109c0,-5 44,-9 98,-8c71,0 91,3 74,10c-30,11 -172,10 -172,-2z"/>
    <path id="svg_351" d="m157053.96608,46847.87109c0,-6 14,-23 30,-39c17,-16 30,-24 30,-19c0,6 -13,23 -30,39c-16,16 -30,24 -30,19z"/>
    <path id="svg_352" d="m159348.96608,46823.87109c-10,-11 -13,-20 -7,-20c6,0 16,9 22,20c6,11 9,20 7,20c-2,0 -12,-9 -22,-20z"/>
    <path id="svg_353" d="m159063.96608,46806.87109c19,-14 46,-18 115,-19c50,0 104,3 120,6c17,4 -19,8 -87,8c-65,1 -126,6 -137,12c-31,16 -38,12 -11,-7z"/>
    <path id="svg_354" d="m157583.96608,46754.87109c0,-8 90,-54 96,-49c1,2 -20,15 -47,30c-27,14 -49,23 -49,19z"/>
    <path id="svg_355" d="m157173.96608,46718.87109c18,-19 35,-33 37,-31c6,5 -50,66 -61,66c-6,0 5,-16 24,-35z"/>
    <path id="svg_356" d="m157353.96608,46725.87109c0,-6 -7,-18 -16,-26c-8,-9 -11,-16 -5,-16c13,0 35,39 27,48c-3,3 -6,0 -6,-6z"/>
    <path id="svg_357" d="m157839.96608,46714.87109c-10,-11 -30,-22 -45,-24c-24,-4 -24,-4 5,-6c29,-1 75,31 62,44c-3,3 -13,-4 -22,-14z"/>
    <path id="svg_358" d="m159864.96608,46681.87109c-2,-15 43,-122 46,-112c2,6 -8,35 -21,65c-14,30 -25,51 -25,47z"/>
    <path id="svg_359" d="m160546.96608,46623.87109c14,-11 28,-20 32,-20c4,0 -4,9 -18,20c-14,11 -28,20 -32,20c-4,0 4,-9 18,-20z"/>
    <path id="svg_360" d="m159924.96608,46531.87109c35,-68 139,-200 139,-177c0,5 -13,22 -28,37c-33,32 -85,108 -98,145c-3,9 -10,17 -16,17c-5,0 -3,-10 3,-22z"/>
    <path id="svg_361" d="m160536.96608,46468.87109c0,-38 2,-53 4,-32c2,20 2,52 0,70c-2,17 -4,1 -4,-38z"/>
    <path id="svg_362" d="m160607.96608,46303.87109c0,-85 2,-120 3,-77c2,42 2,112 0,155c-1,42 -3,7 -3,-78z"/>
    <path id="svg_363" d="m160155.96608,46350.87109c95,-93 184,-151 292,-192c68,-26 106,-30 44,-4c-64,25 -184,85 -223,110c-22,15 -76,59 -120,99l-80,72l87,-85z"/>
    <path id="svg_364" d="m160073.96608,46334.87109c0,-12 123,-122 129,-115c3,2 -13,19 -35,37c-21,17 -51,45 -66,60c-16,15 -28,23 -28,18z"/>
    <path id="svg_365" d="m160303.96608,46155.87109c0,-5 16,-16 35,-25c19,-9 35,-15 35,-13c0,2 -16,13 -35,25c-19,11 -35,17 -35,13z"/>
    <path id="svg_366" d="m160594.96608,46136.87109c-2,-23 -40,-53 -68,-53c-19,0 -24,-3 -17,-10c22,-22 102,33 91,62c-4,10 -6,10 -6,1z"/>
    <path id="svg_367" d="m160383.96608,46115.87109c0,-4 14,-13 30,-19c17,-6 30,-10 30,-7c0,2 -13,10 -30,19c-16,9 -30,12 -30,7z"/>
   </g>
   <g transform="matrix(1.23071, 0, 0, 1.17198, -192046, -53982.9)" fill="#6aa349" id="svg_29">
    <path id="svg_368" d="m159688.96608,48963.87109c-309,-61 -544,-268 -648,-570c-40,-116 -45,-172 -46,-499c-1,-167 -4,-308 -7,-312c-3,-5 -71,-9 -152,-9l-147,0l0,-39c0,-35 3,-40 35,-50c47,-16 114,-44 120,-51c20,-21 82,-38 133,-37c31,2 57,-2 57,-7c0,-6 5,-5 12,2c7,7 19,12 27,12c14,0 14,-1 1,-10c-11,-7 -7,-10 18,-10c19,0 32,5 32,13c0,8 3,8 8,1c9,-13 115,-13 124,1c5,6 11,6 20,-3c16,-16 62,-16 52,0c-5,7 -3,8 7,3c18,-12 61,-16 54,-5c-3,4 24,7 59,5c35,-1 69,1 75,4c6,4 9,39 8,86l-2,80l-147,3l-148,3l-1,52c-4,224 3,592 12,637c6,30 29,93 51,139c74,155 241,290 398,322c30,6 65,13 78,15c21,4 22,8 22,119l0,115l-32,-1c-18,-1 -51,-5 -73,-9z"/>
    <path id="svg_369" d="m159863.96608,48860.87109l0,-114l83,-16c233,-46 423,-233 472,-464c49,-231 -30,-456 -220,-626c-47,-42 -144,-167 -130,-167c4,0 -1,-7 -9,-16c-9,-8 -14,-20 -11,-25c4,-5 1,-9 -5,-9c-6,0 -8,-4 -5,-10c3,-5 1,-10 -5,-10c-6,0 -9,-4 -6,-9c4,-5 1,-11 -6,-13c-9,-3 -9,-6 0,-12c7,-4 12,-2 12,3c0,6 9,11 21,11c11,0 29,5 40,10c10,6 19,7 19,2c0,-5 19,-8 43,-6c108,10 126,10 121,2c-3,-4 0,-8 5,-8c6,0 11,5 11,11c0,6 44,54 97,107c139,139 212,265 258,442c21,79 21,263 1,360c-56,265 -269,521 -514,614c-75,29 -190,56 -239,56l-33,0l0,-113z"/>
    <path id="svg_370" d="m156516.96608,48626.87109c-199,-256 -242,-591 -112,-881c30,-66 106,-182 120,-182c5,0 9,-6 9,-13c0,-12 123,-131 154,-149c10,-5 109,-14 286,-23c30,-2 116,-4 190,-4c91,-1 130,-4 120,-11c-8,-5 -10,-10 -4,-10c5,0 14,4 20,9c5,5 98,11 207,14c109,4 203,9 209,13c7,5 9,2 6,-8c-4,-8 -2,-21 2,-28c7,-12 8,301 1,1168l-1,142l-119,0l-119,0l1,-599c2,-667 9,-617 -68,-544c-80,75 -141,193 -184,358c-50,191 -51,204 -51,501l0,284l-105,0l-105,0l2,-595c2,-392 0,-595 -7,-595c-23,0 -186,134 -238,195c-123,144 -177,278 -177,440c0,99 20,187 63,271c33,65 136,202 182,243c19,17 35,33 35,36c0,3 -65,5 -144,5l-144,0l-29,-37z"/>
    <path id="svg_371" d="m158233.96608,48647.87109c-131,-32 -270,-132 -345,-248c-63,-99 -92,-252 -71,-376c5,-25 25,-83 47,-128c69,-149 210,-262 372,-297c88,-19 237,-12 312,14c259,92 414,357 360,615c-56,265 -275,438 -550,435c-38,-1 -95,-7 -125,-15zm274,-248c190,-93 231,-346 79,-487c-69,-64 -123,-84 -223,-84c-101,0 -156,21 -217,82c-55,55 -83,118 -90,201c-5,61 -3,76 21,128c59,129 170,198 308,190c47,-2 84,-11 122,-30z"/>
    <path id="svg_372" d="m159686.96608,48644.87109c-220,-63 -383,-287 -383,-524c0,-255 198,-489 447,-527c173,-27 314,21 444,149c84,83 127,156 154,262c34,127 3,297 -74,418c-69,107 -203,203 -321,230c-68,16 -197,12 -267,-8zm249,-231c59,-22 130,-85 158,-139c102,-203 -40,-446 -259,-445c-90,0 -136,18 -198,77c-111,105 -131,277 -47,399c77,110 220,155 346,108z"/>
    <path id="svg_373" d="m158908.96608,47813.87109c-5,-8 -10,-17 -11,-20c0,-3 -6,-25 -13,-48c-11,-39 -10,-45 6,-57c27,-21 34,-5 31,71c-2,50 -6,65 -13,54z"/>
    <path id="svg_374" d="m159993.96608,47517.87109c-15,-37 -12,-40 10,-11c22,28 25,37 10,37c-6,0 -15,-12 -20,-26z"/>
    <path id="svg_375" d="m159523.96608,47381.87109c0,-9 -3,-25 -6,-35c-6,-17 -6,-17 11,-2c13,13 15,21 6,35c-9,17 -10,17 -11,2z"/>
    <path id="svg_376" d="m157226.96608,47248.87109c0,-22 2,-30 4,-17c2,12 2,30 0,40c-3,9 -5,-1 -4,-23z"/>
    <path id="svg_377" d="m157726.96608,47238.87109c0,-22 2,-30 4,-17c2,12 2,30 0,40c-3,9 -5,-1 -4,-23z"/>
    <path id="svg_378" d="m159226.96608,47238.87109c0,-22 2,-30 4,-17c2,12 2,30 0,40c-3,9 -5,-1 -4,-23z"/>
    <path id="svg_379" d="m157303.96608,47139.87109c0,-3 14,-20 31,-38l31,-33l-23,37c-21,33 -39,48 -39,34z"/>
   </g>
   <g transform="matrix(1.23071, 0, 0, 1.17198, -192046, -53982.9)" fill="#ab629e" id="svg_28">
    <path id="svg_380" d="m159387.96608,48383.87109c-42,-16 -84,-147 -84,-263c0,-255 198,-489 447,-527c105,-16 209,-2 303,43c88,41 203,157 249,251c59,121 71,281 30,399c-39,110 -24,102 -188,105c-159,3 -154,6 -93,-58c133,-140 83,-389 -96,-477c-72,-35 -172,-37 -242,-6c-182,82 -238,339 -105,489c24,26 31,41 22,45c-17,9 -217,8 -243,-1z"/>
    <path id="svg_381" d="m156448.96608,48373.87109l-70,-5l-18,-55c-54,-166 -37,-387 44,-568c30,-66 106,-182 120,-182c5,0 9,-6 9,-13c0,-12 123,-131 154,-149c10,-5 109,-14 286,-23c30,-2 116,-4 190,-4c91,-1 130,-4 120,-11c-8,-5 -10,-10 -4,-10c5,0 14,4 20,9c5,5 99,11 208,14c110,4 203,10 207,14c5,5 8,229 6,498l-2,490l-113,2c-108,1 -112,0 -118,-21c-3,-12 -4,-218 -2,-458c3,-490 10,-459 -75,-379c-52,49 -127,172 -144,237c-6,21 -25,87 -41,145c-16,59 -33,129 -36,155c-6,44 -16,230 -16,295l0,26l-94,2l-95,2l-6,-33c-3,-18 -5,-223 -3,-456c2,-236 -1,-422 -6,-422c-18,0 -144,96 -202,154c-107,108 -148,174 -195,311c-35,101 -33,259 4,363c14,39 25,73 24,73c-6,4 -91,4 -152,-1z"/>
    <path id="svg_382" d="m157870.96608,48364.87109c-25,-30 -57,-155 -59,-226c-2,-99 9,-148 53,-243c69,-149 210,-262 372,-297c117,-25 270,-10 367,37c101,50 207,154 258,254c62,122 69,317 15,430l-28,59l-148,2l-148,1l34,-33c123,-119 123,-323 0,-436c-69,-64 -123,-84 -223,-84c-73,0 -93,4 -142,28c-158,78 -223,291 -129,424c17,24 31,47 31,51c0,4 14,16 30,28l29,20l-149,1c-126,0 -151,-2 -163,-16z"/>
    <path id="svg_383" d="m159035.96608,48370.87109c-28,-36 -35,-114 -39,-437c-2,-184 -6,-341 -8,-347c-3,-10 -43,-13 -152,-13l-148,0l0,-39c0,-35 3,-40 35,-50c47,-16 114,-44 120,-51c20,-21 82,-38 133,-37c31,2 57,-2 57,-7c0,-6 5,-5 12,2c7,7 19,12 27,12c14,0 14,-1 1,-10c-11,-7 -7,-10 18,-10c19,0 32,5 32,13c0,8 3,8 8,1c9,-13 115,-13 124,1c5,6 11,6 20,-3c16,-16 62,-16 52,0c-5,7 -3,8 7,3c18,-12 61,-16 54,-5c-3,4 24,7 60,5c39,-1 68,2 74,9c5,6 8,45 7,86l-2,75l-150,5l-149,5l0,340c0,327 1,342 23,400c12,32 22,61 22,62c0,2 -52,3 -115,2c-73,0 -117,-5 -123,-12z"/>
    <path id="svg_384" d="m160391.96608,48378.87109c-3,-3 4,-31 14,-61c29,-84 34,-203 14,-304c-28,-144 -100,-264 -221,-373c-47,-42 -144,-167 -130,-167c4,0 -1,-7 -9,-16c-9,-8 -14,-20 -11,-25c4,-5 1,-9 -5,-9c-6,0 -8,-4 -5,-10c3,-5 1,-10 -5,-10c-6,0 -9,-4 -6,-9c4,-5 1,-11 -6,-13c-9,-3 -9,-6 0,-12c7,-4 12,-2 12,3c0,6 9,11 21,11c11,0 29,5 40,10c10,6 19,7 19,2c0,-5 19,-8 43,-6c107,10 126,10 122,3c-3,-4 40,38 95,94c165,166 252,321 280,500c15,91 8,269 -13,337l-14,45l-59,6c-75,9 -169,10 -176,4z"/>
    <path id="svg_385" d="m159770.96608,48349.87109c-27,-7 -54,-19 -60,-26c-10,-10 -8,-11 8,-5c46,18 118,34 128,28c6,-3 7,-1 3,5c-9,15 -18,14 -79,-2z"/>
    <path id="svg_386" d="m158266.96608,48333.87109c-24,-10 -43,-22 -43,-25c0,-3 14,2 32,11c17,9 63,20 102,24l71,7l-60,1c-40,1 -74,-5 -102,-18z"/>
    <path id="svg_387" d="m159907.96608,48334.87109c3,-5 16,-11 28,-14c22,-6 22,-5 4,8c-22,17 -40,20 -32,6z"/>
    <path id="svg_388" d="m156173.96608,48047.87109c0,-16 5,-36 10,-44c8,-11 9,-5 6,23c-4,46 -16,62 -16,21z"/>
    <path id="svg_389" d="m159943.96608,48028.87109c-7,-9 -11,-18 -8,-20c3,-3 11,1 18,10c7,9 11,18 8,20c-3,3 -11,-1 -18,-10z"/>
    <path id="svg_390" d="m159733.96608,48009.87109c33,-37 57,-49 66,-34c4,6 3,8 -4,4c-6,-3 -28,8 -49,26c-34,29 -35,29 -13,4z"/>
    <path id="svg_391" d="m158902.96608,47810.87109c-2,-10 -4,-17 -18,-65c-11,-39 -10,-45 6,-57c10,-7 19,-12 20,-11c6,6 5,127 -1,133c-3,3 -7,3 -7,0z"/>
    <path id="svg_392" d="m159383.96608,47697.87109c6,-17 22,-37 35,-44c40,-21 38,-7 -5,35l-41,40l11,-31z"/>
    <path id="svg_393" d="m158043.96608,47588.87109c0,-7 61,-37 66,-33c2,3 -12,12 -31,21c-19,9 -35,15 -35,12z"/>
    <path id="svg_394" d="m159603.96608,47545.87109c0,-16 236,-57 245,-43c2,5 -28,11 -68,14c-40,4 -92,13 -116,22c-50,17 -61,18 -61,7z"/>
    <path id="svg_395" d="m158143.96608,47538.87109c0,-10 79,-26 145,-30l70,-4l-62,9c-34,5 -79,13 -100,19c-42,12 -53,13 -53,6z"/>
    <path id="svg_396" d="m159994.96608,47520.87109c-15,-39 -14,-45 5,-19c8,12 13,28 11,35c-3,6 -10,-1 -16,-16z"/>
    <path id="svg_397" d="m160474.96608,47482.87109c-29,-27 -51,-52 -49,-54c2,-3 29,20 58,50c68,69 63,71 -9,4z"/>
    <path id="svg_398" d="m158386.96608,47501.87109c21,-7 32,-7 40,1c8,8 0,11 -28,10c-40,-1 -40,-1 -12,-11z"/>
    <path id="svg_399" d="m158673.96608,47409.87109c25,-7 58,-19 74,-25c16,-6 31,-10 33,-8c6,7 -71,35 -113,41l-39,6l45,-14z"/>
    <path id="svg_400" d="m160393.96608,47408.87109c-7,-9 -11,-18 -8,-20c3,-3 11,1 18,10c7,9 11,18 8,20c-3,3 -11,-1 -18,-10z"/>
    <path id="svg_401" d="m159524.96608,47381.87109c0,-9 -4,-25 -7,-35c-5,-14 -4,-15 5,-7c7,7 11,22 8,35c-2,13 -5,16 -6,7z"/>
    <path id="svg_402" d="m159304.96608,47241.87109c1,-17 3,-18 6,-6c4,15 22,18 151,21l147,3l-152,2c-153,2 -153,2 -152,-20z"/>
    <path id="svg_403" d="m158912.96608,47178.87109c17,-33 31,-51 31,-40c0,6 -10,21 -21,35c-13,17 -17,18 -10,5z"/>
    <path id="svg_404" d="m157507.96608,46906.87109c22,-24 42,-40 45,-38c2,3 2,6 0,8c-2,1 -22,18 -44,37l-40,35l39,-42z"/>
    <path id="svg_405" d="m157377.96608,46907.87109c-3,-13 -4,-29 -1,-36c3,-7 6,0 6,17l1,29l40,-39c22,-21 42,-37 44,-34c2,2 -16,22 -40,45c-43,39 -45,40 -50,18z"/>
    <path id="svg_406" d="m159181.96608,46866.87109c18,-2 45,-2 60,0c15,2 0,4 -33,4c-33,0 -45,-2 -27,-4z"/>
    <path id="svg_407" d="m157053.96608,46846.87109c0,-4 14,-21 30,-36c17,-16 30,-25 30,-20c0,4 -13,21 -30,36c-16,16 -30,25 -30,20z"/>
    <path id="svg_408" d="m159073.96608,46801.87109c0,-5 6,-8 13,-9c56,-5 87,-4 87,2c0,4 -23,9 -50,11c-28,1 -50,0 -50,-4z"/>
    <path id="svg_409" d="m159238.96608,46793.87109c-4,-6 10,-7 37,-4c57,8 61,14 10,14c-22,0 -44,-4 -47,-10z"/>
    <path id="svg_410" d="m157853.96608,46726.87109c0,-6 -15,-18 -32,-27c-26,-12 -29,-16 -12,-16c22,0 62,36 51,47c-4,3 -7,2 -7,-4z"/>
    <path id="svg_411" d="m159874.96608,46653.87109c0,-8 4,-24 9,-35c5,-13 9,-14 9,-5c0,8 -4,24 -9,35c-5,13 -9,14 -9,5z"/>
    <path id="svg_412" d="m160383.96608,46193.87109c19,-11 40,-19 45,-19c6,0 -6,8 -25,19c-19,11 -39,19 -45,19c-5,0 6,-8 25,-19z"/>
   </g>
   <g transform="matrix(1.23071, 0, 0, 1.17198, -192046, -53982.9)" fill="#4a94c6" id="svg_27">
    <path id="svg_413" d="m157596.96608,48806.87109c9,-2 25,-2 35,0c9,3 1,5 -18,5c-19,0 -27,-2 -17,-5z"/>
    <path id="svg_414" d="m157671.96608,48806.87109c12,-2 30,-2 40,0c9,3 -1,5 -23,4c-22,0 -30,-2 -17,-4z"/>
    <path id="svg_415" d="m157751.96608,48806.87109c12,-2 32,-2 45,0c12,2 2,4 -23,4c-25,0 -35,-2 -22,-4z"/>
    <path id="svg_416" d="m159386.96608,48382.87109c-27,-10 -60,-97 -75,-199c-13,-94 5,-196 51,-293c43,-91 188,-237 234,-237c10,0 17,-4 17,-9c0,-4 31,-18 70,-30c73,-23 163,-29 240,-16c153,26 314,152 385,301c54,113 63,274 24,387c-39,110 -25,102 -187,105l-142,2l50,-62c62,-77 84,-140 77,-219c-23,-261 -318,-382 -500,-204c-118,115 -129,311 -22,431c24,26 31,41 22,45c-17,9 -218,8 -244,-2z"/>
    <path id="svg_417" d="m156451.96608,48375.87109c-81,-3 -80,-3 -103,-128c-32,-166 -11,-344 58,-494c46,-101 147,-235 236,-315c49,-43 46,-42 166,-50c185,-12 215,-13 355,-14c91,-1 130,-4 120,-11c-8,-5 -10,-10 -4,-10c5,0 14,4 20,9c5,5 99,11 208,14c110,4 203,10 207,14c5,5 8,229 6,498l-2,490l-112,2l-113,1l-1,-26c0,-15 0,-222 0,-459c0,-288 -3,-433 -10,-433c-24,0 -123,109 -163,180c-42,75 -103,265 -126,390c-8,46 -19,229 -20,321l0,26l-94,2l-94,2l-4,-43c-2,-24 -3,-229 -3,-455c1,-348 -1,-413 -12,-413c-37,0 -183,122 -261,219c-61,75 -99,145 -133,246c-35,101 -33,259 4,363c14,39 25,73 24,73c-4,3 -87,4 -149,1z"/>
    <path id="svg_418" d="m157867.96608,48359.87109c-23,-36 -54,-174 -54,-240c0,-134 57,-266 159,-366c65,-64 178,-134 234,-144c15,-2 30,-7 35,-10c21,-13 171,-14 238,-1c67,13 185,66 220,99c6,6 21,18 33,26c29,20 103,115 129,166c62,122 69,317 15,430l-28,59l-148,2l-148,1l34,-33c19,-18 47,-55 63,-81c26,-44 29,-58 29,-134c0,-70 -4,-94 -24,-134c-28,-58 -89,-119 -144,-148c-118,-60 -293,-28 -378,69c-92,105 -109,261 -40,360c17,24 31,47 31,51c0,4 14,16 30,28l29,20l-150,1c-144,0 -151,-1 -165,-21z"/>
    <path id="svg_419" d="m159033.96608,48358.87109c-26,-68 -33,-158 -35,-458c-1,-174 -5,-320 -8,-324c-4,-3 -73,-7 -153,-7l-146,-2l-3,-35c-2,-33 1,-37 34,-48c61,-21 114,-44 152,-67c28,-17 49,-22 97,-20c35,1 62,-3 62,-8c0,-6 5,-5 12,2c7,7 19,12 27,12c14,0 14,-1 1,-10c-11,-7 -7,-10 18,-10c19,0 32,5 32,13c0,8 3,8 8,1c9,-13 115,-13 124,1c5,6 11,6 20,-3c16,-16 62,-16 52,0c-5,7 -3,8 7,3c18,-12 61,-16 54,-5c-3,4 24,7 60,5c39,-1 68,2 74,9c5,6 8,45 7,86l-2,75l-140,3c-76,1 -145,4 -152,7c-11,4 -13,70 -10,342c3,321 5,341 26,398c12,32 22,61 22,62c0,2 -52,3 -116,2c-110,-1 -116,-2 -124,-24z"/>
    <path id="svg_420" d="m160397.96608,48361.87109c30,-106 36,-145 37,-223c0,-108 -27,-220 -73,-308c-21,-39 -76,-107 -148,-183c-90,-95 -123,-138 -153,-198c-21,-43 -36,-80 -33,-84c3,-3 6,0 6,6c0,7 9,12 21,12c11,0 29,5 40,10c10,6 19,7 19,2c0,-5 19,-8 43,-6c108,10 126,10 121,3c-2,-5 41,38 96,95c100,102 183,213 213,284c46,112 56,144 67,215c15,91 8,269 -13,337l-14,45l-59,6c-32,4 -85,7 -118,8c-56,1 -58,0 -52,-21z"/>
    <path id="svg_421" d="m159769.96608,48345.87109c-3,-5 8,-6 25,-4c16,2 29,6 29,8c0,8 -49,4 -54,-4z"/>
    <path id="svg_422" d="m158403.96608,48275.87109c0,-4 14,-13 30,-19c17,-6 30,-10 30,-7c0,2 -13,10 -30,19c-16,9 -30,12 -30,7z"/>
    <path id="svg_423" d="m156174.96608,48052.87109c0,-13 4,-33 9,-44c7,-15 8,-11 6,18c-4,42 -16,64 -15,26z"/>
    <path id="svg_424" d="m158896.96608,47775.87109c-24,-57 -25,-70 -4,-81c17,-10 19,-7 23,34c4,62 -4,83 -19,47z"/>
    <path id="svg_425" d="m159400.96608,47679.87109c-4,-10 5,-18 25,-25l32,-11l-24,25c-28,29 -26,29 -33,11z"/>
    <path id="svg_426" d="m159621.96608,47541.87109c5,-5 36,-15 68,-22c78,-18 161,-26 143,-15c-8,5 -30,9 -49,9c-20,0 -66,9 -104,19c-37,10 -64,15 -58,9z"/>
    <path id="svg_427" d="m159993.96608,47524.87109c0,-5 -3,-18 -6,-28c-6,-16 -5,-16 9,2c19,23 21,35 7,35c-5,0 -10,-4 -10,-9z"/>
    <path id="svg_428" d="m158186.96608,47456.87109c9,-14 47,-24 47,-12c0,5 -4,9 -9,9c-5,0 -17,3 -27,7c-11,4 -15,3 -11,-4z"/>
    <path id="svg_429" d="m158335.96608,47431.87109c-10,-4 3,-7 31,-7c26,-1 47,2 47,7c0,9 -55,9 -78,0z"/>
    <path id="svg_430" d="m159521.96608,47368.87109c-3,-14 -1,-25 3,-25c5,0 9,11 9,25c0,14 -2,25 -4,25c-2,0 -6,-11 -8,-25z"/>
    <path id="svg_431" d="m156495.96608,47363.87109c7,-11 19,-22 28,-25c8,-4 4,5 -9,19c-29,31 -36,33 -19,6z"/>
    <path id="svg_432" d="m158783.96608,47286.87109c8,-3 25,-15 38,-26c12,-11 22,-17 22,-13c0,13 -44,45 -60,45c-13,-1 -13,-1 0,-6z"/>
    <path id="svg_433" d="m156728.96608,47155.87109c17,-17 34,-32 39,-32c13,0 -25,40 -49,52c-14,7 -10,1 10,-20z"/>
    <path id="svg_434" d="m156823.96608,47069.87109c0,-1 28,-27 63,-56l62,-53l-55,56c-47,49 -70,67 -70,53z"/>
    <path id="svg_435" d="m157379.96608,46918.87109c-3,-9 -6,-26 -5,-38c1,-14 4,-9 9,13c9,37 7,52 -4,25z"/>
    <path id="svg_436" d="m157005.96608,46894.87109c13,-22 38,-36 38,-22c0,5 -11,16 -25,25c-25,17 -25,16 -13,-3z"/>
    <path id="svg_437" d="m157427.96608,46874.87109c4,-6 16,-16 28,-22c15,-8 18,-8 14,0c-4,6 -16,16 -28,22c-15,8 -18,8 -14,0z"/>
    <path id="svg_438" d="m157053.96608,46849.87109c0,-2 14,-20 30,-38c17,-18 30,-28 30,-23c0,6 -13,23 -30,38c-16,16 -30,26 -30,23z"/>
    <path id="svg_439" d="m159083.96608,46799.87109c11,-11 90,-16 90,-5c0,4 -22,9 -50,11c-29,2 -45,-1 -40,-6z"/>
    <path id="svg_440" d="m159239.96608,46794.87109c-4,-5 12,-7 36,-4c57,8 61,13 10,13c-22,0 -43,-4 -46,-9z"/>
    <path id="svg_441" d="m157173.96608,46718.87109c18,-19 35,-33 37,-31c5,4 -56,66 -65,66c-3,0 9,-16 28,-35z"/>
    <path id="svg_442" d="m157584.96608,46749.87109c10,-9 69,-36 69,-32c0,6 -55,36 -66,36c-4,0 -5,-2 -3,-4z"/>
    <path id="svg_443" d="m157853.96608,46726.87109c0,-6 -15,-18 -32,-27c-21,-10 -26,-16 -15,-16c21,0 64,37 54,47c-4,3 -7,2 -7,-4z"/>
    <path id="svg_444" d="m159974.96608,46458.87109c0,-5 6,-19 14,-29c8,-11 15,-15 15,-10c0,6 -7,19 -15,30c-8,10 -14,15 -14,9z"/>
    <path id="svg_445" d="m160551.96608,46090.87109c-16,-6 -28,-15 -28,-19c0,-5 14,-2 30,7c17,9 30,18 30,20c0,3 -1,5 -2,4c-2,-1 -15,-6 -30,-12z"/>
   </g>
   <g transform="matrix(1.23071, 0, 0, 1.17198, -192046, -53982.9)" fill="#accd97" id="svg_26">
    <path id="svg_446" d="m159386.96608,48382.87109c-27,-10 -60,-97 -75,-199c-9,-62 -8,-91 5,-153c19,-92 64,-191 111,-240l35,-37l367,0l367,0l-19,-23c-10,-13 7,3 38,36c31,33 71,89 89,125c57,117 69,278 28,395c-39,110 -25,102 -187,105l-142,2l50,-62c62,-77 84,-140 77,-219c-23,-261 -318,-382 -500,-204c-118,115 -129,311 -22,431c24,26 31,41 22,45c-17,9 -218,8 -244,-2z"/>
    <path id="svg_447" d="m156451.96608,48375.87109c-81,-3 -80,-3 -103,-128c-24,-126 -17,-281 19,-391c15,-45 30,-84 34,-87c4,-2 61,-7 127,-11c66,-3 126,-11 135,-18c12,-9 12,-8 -1,8c-25,30 -63,111 -90,190c-35,101 -33,259 4,363c14,39 25,73 24,73c-4,3 -87,4 -149,1z"/>
    <path id="svg_448" d="m156983.96608,48351.87109c0,-18 -3,-109 -6,-203c-3,-93 -2,-221 1,-282l7,-113l138,0c76,0 140,-3 143,-7c2,-5 2,-1 0,7c-3,8 -19,69 -37,135c-19,67 -36,143 -40,170c-6,45 -16,230 -16,296l0,26l-95,2l-95,2l0,-33z"/>
    <path id="svg_449" d="m157493.96608,48355.87109c0,-15 -2,-106 -4,-202c-2,-96 -1,-227 2,-290l5,-115l105,3c79,3 107,0 113,-10c5,-7 8,133 6,312l-2,325l-112,2l-113,1l0,-26z"/>
    <path id="svg_450" d="m157867.96608,48359.87109c-23,-36 -54,-174 -54,-240c0,-109 49,-244 117,-325l29,-34l285,-2c462,-3 511,-4 504,-15c-17,-28 7,-3 47,48c93,118 123,215 115,368c-5,83 -11,111 -34,160l-28,59l-148,2l-148,1l34,-33c19,-18 47,-55 63,-81c26,-44 29,-58 29,-134c0,-70 -4,-94 -24,-134c-28,-58 -89,-119 -144,-148c-118,-60 -293,-28 -378,69c-92,105 -109,261 -40,360c17,24 31,47 31,51c0,4 14,16 30,28l29,20l-150,1c-144,0 -151,-1 -165,-21z"/>
    <path id="svg_451" d="m159033.96608,48358.87109c-23,-61 -33,-158 -35,-348c-1,-115 0,-220 3,-233c4,-24 6,-24 108,-24c76,0 105,-3 106,-12c1,-7 5,106 8,252c5,240 8,271 28,325c12,32 22,61 22,62c0,2 -52,3 -116,2c-110,-1 -116,-2 -124,-24z"/>
    <path id="svg_452" d="m160397.96608,48361.87109c30,-106 36,-145 37,-223c0,-133 -38,-266 -103,-358l-20,-27l136,2l135,3l12,30c6,17 19,50 29,75c43,107 52,347 17,460l-14,45l-59,6c-32,4 -85,7 -118,8c-56,1 -58,0 -52,-21z"/>
    <path id="svg_453" d="m158895.96608,47766.87109c-16,-52 -15,-70 2,-76c11,-4 15,6 18,39c5,65 -6,85 -20,37z"/>
    <path id="svg_454" d="m159405.96608,47677.87109c2,-9 14,-21 28,-26l24,-9l-24,26c-28,29 -33,31 -28,9z"/>
   </g>
   <g transform="matrix(1.23071, 0, 0, 1.17198, -192046, -53982.9)" fill="#acc6d4" id="svg_25">
    <path id="svg_455" d="m160433.96608,48190.87109c10,-133 -22,-277 -85,-381l-35,-59l87,6c49,4 109,7 135,7l47,0l21,57c34,90 50,174 54,281c6,144 4,145 -117,149c-54,1 -101,4 -105,7c-4,2 -5,-28 -2,-67z"/>
    <path id="svg_456" d="m156337.96608,48185.87109c-11,-106 1,-238 30,-329c15,-45 30,-84 34,-87c4,-2 61,-7 126,-11c66,-3 123,-8 128,-11c5,-3 -5,16 -21,43c-17,27 -43,81 -58,119c-25,63 -27,81 -28,206l0,136l-102,-1l-102,0l-7,-65z"/>
    <path id="svg_457" d="m156982.96608,48239.87109c-9,-209 -10,-280 -4,-373l7,-113l138,0l137,0l-19,68c-41,143 -68,288 -68,358l0,73l-95,-1c-62,0 -95,-4 -96,-12z"/>
    <path id="svg_458" d="m157493.96608,48205.87109c0,-26 -2,-81 -4,-122c-2,-41 -2,-133 1,-205l6,-130l105,3c70,2 107,0 112,-8c4,-6 7,105 8,248l1,259l-114,1l-115,0l0,-46z"/>
    <path id="svg_459" d="m157828.96608,48243.87109c-16,-26 -17,-177 -2,-237c19,-73 64,-164 104,-211l28,-33l394,-4c216,-2 395,-6 398,-9c9,-8 92,105 114,153c44,99 57,197 43,305l-7,47l-118,-2l-119,-2l8,-26c4,-14 7,-60 7,-101c0,-59 -6,-86 -24,-124c-93,-189 -345,-239 -500,-100c-70,63 -105,137 -104,223c0,36 3,81 8,99l8,32l-116,0c-65,0 -118,-4 -122,-10z"/>
    <path id="svg_460" d="m159013.96608,48243.87109c-11,-7 -14,-50 -16,-225c0,-118 1,-227 4,-240c4,-25 6,-25 107,-25c84,0 104,3 109,16c3,8 6,113 6,233c-1,120 2,225 6,234c5,15 -5,16 -98,16c-57,0 -110,-4 -118,-9z"/>
    <path id="svg_461" d="m159320.96608,48231.87109c-3,-13 -8,-48 -12,-78c-13,-109 45,-284 119,-363l35,-37l367,0c347,0 366,-1 354,-17c-7,-10 6,2 29,27c97,105 147,240 139,380c-3,48 -8,93 -12,99c-5,7 -47,11 -118,11l-110,0l8,-27c5,-16 9,-59 9,-98c-1,-209 -203,-356 -398,-289c-108,37 -197,163 -199,285c-1,35 2,79 6,97l8,32l-110,0c-106,0 -110,-1 -115,-22z"/>
    <path id="svg_462" d="m158895.96608,47764.87109c-16,-50 -15,-71 1,-71c10,0 14,16 16,55c1,30 0,55 -2,55c-2,0 -9,-17 -15,-39z"/>
    <path id="svg_463" d="m159491.96608,47256.87109c12,-2 32,-2 45,0c12,2 2,4 -23,4c-25,0 -35,-2 -22,-4z"/>
   </g>
   <g transform="matrix(1.23071, 0, 0, 1.17198, -192046, -53982.9)" fill="#e6f1ed" id="svg_24">
    <path id="svg_464" d="m156442.96608,48225.87109l-96,-3l-7,-37c-11,-71 -5,-197 13,-262l18,-65l112,-3c61,-1 111,1 111,5c0,4 -10,33 -22,63c-17,43 -22,81 -25,179c-1,68 -4,125 -6,125c-1,1 -45,0 -98,-2z"/>
    <path id="svg_465" d="m156988.96608,48218.87109c-8,-27 -14,-225 -8,-295l6,-79l124,0c114,-1 124,1 119,17c-21,67 -56,255 -56,304c0,32 -3,58 -7,59c-51,7 -176,3 -178,-6z"/>
    <path id="svg_466" d="m157521.96608,48225.87109l-28,-3l-1,-92c-1,-51 -1,-103 -1,-117c-1,-14 0,-57 1,-96l1,-70l109,-1c133,0 123,-18 120,216l-2,166l-86,0c-47,0 -98,-1 -113,-3z"/>
    <path id="svg_467" d="m157847.96608,48225.87109c-55,-8 -43,-206 19,-329l24,-46l164,-1l165,-1l-36,26c-87,63 -133,149 -134,249c0,36 3,74 7,85c6,19 2,20 -91,20c-53,0 -107,-1 -118,-3z"/>
    <path id="svg_468" d="m158698.96608,48225.87109c-19,-3 -20,-9 -17,-72c7,-113 -35,-204 -125,-274l-44,-35l163,2l163,2l22,45c35,74 56,173 51,250c-2,38 -6,72 -9,75c-7,6 -170,12 -204,7z"/>
    <path id="svg_469" d="m159011.96608,48222.87109c-12,-8 -15,-349 -4,-368c5,-8 41,-10 109,-9l102,3l2,188c2,103 -1,187 -5,188c-35,4 -196,3 -204,-2z"/>
    <path id="svg_470" d="m159332.96608,48225.87109c-12,-2 -18,-19 -23,-66c-7,-71 3,-136 34,-220c36,-96 36,-96 210,-95l151,1l-40,28c-96,70 -153,204 -132,314l8,43l-96,-1c-53,-1 -103,-2 -112,-4z"/>
    <path id="svg_471" d="m160135.96608,48223.87109c-4,-3 -7,-41 -7,-85c0,-71 -4,-89 -33,-147c-30,-61 -68,-105 -118,-134c-15,-9 16,-12 139,-11c185,1 173,-6 213,124c21,67 25,97 23,162c-2,44 -8,83 -12,87c-8,9 -195,12 -205,4z"/>
    <path id="svg_472" d="m160442.96608,48222.87109c-5,-3 -7,-23 -4,-45c6,-49 -19,-221 -40,-270c-8,-20 -15,-41 -15,-46c0,-5 52,-7 118,-6l117,3l17,70c18,72 31,264 19,283c-7,11 -196,21 -212,11z"/>
   </g>
  </g>
 </g>
</svg>